<?xml version="1.0" encoding="UTF-8" standalone="no"?>
<!DOCTYPE svg PUBLIC "-//W3C//DTD SVG 1.1//EN" "http://www.w3.org/Graphics/SVG/1.1/DTD/svg11.dtd">
<svg width="100%" height="100%" viewBox="0 0 221 77" version="1.1" xmlns="http://www.w3.org/2000/svg" xmlns:xlink="http://www.w3.org/1999/xlink" xml:space="preserve" xmlns:serif="http://www.serif.com/" style="fill-rule:evenodd;clip-rule:evenodd;stroke-linejoin:round;stroke-miterlimit:2;">
    <g transform="matrix(-0.0139747,0,0,0.0139747,123.149,6.89868)">
        <g>
            <g transform="matrix(-4633.32,0,0,4633.32,-928.976,4318.18)">
                <path d="M0.241,-0.225L0.241,-0.004C0.234,-0.002 0.222,0 0.206,0.002C0.19,0.004 0.174,0.005 0.159,0.005C0.144,0.005 0.13,0.004 0.119,0.002C0.107,-0.001 0.097,-0.005 0.089,-0.011C0.081,-0.017 0.075,-0.025 0.071,-0.036C0.067,-0.047 0.065,-0.061 0.065,-0.078L0.065,-0.606C0.072,-0.607 0.084,-0.609 0.1,-0.612C0.116,-0.614 0.131,-0.615 0.146,-0.615C0.161,-0.615 0.175,-0.614 0.187,-0.612C0.198,-0.609 0.208,-0.605 0.216,-0.599C0.224,-0.593 0.23,-0.585 0.234,-0.574C0.238,-0.563 0.24,-0.549 0.24,-0.532L0.24,-0.373C0.314,-0.446 0.521,-0.588 0.509,-0.721C0.555,-0.721 0.587,-0.712 0.607,-0.695C0.608,-0.694 0.609,-0.693 0.611,-0.692C0.628,-0.676 0.636,-0.657 0.636,-0.635C0.636,-0.618 0.636,-0.6 0.631,-0.583C0.625,-0.564 0.607,-0.52 0.52,-0.425L0.395,-0.3C0.412,-0.281 0.429,-0.262 0.448,-0.242C0.466,-0.222 0.484,-0.202 0.502,-0.184C0.519,-0.165 0.536,-0.146 0.553,-0.129C0.569,-0.112 0.583,-0.097 0.595,-0.084C0.595,-0.069 0.592,-0.056 0.587,-0.045C0.582,-0.034 0.575,-0.024 0.566,-0.016C0.557,-0.008 0.546,-0.002 0.535,0.002C0.524,0.006 0.512,0.008 0.499,0.008C0.472,0.008 0.449,0.001 0.432,-0.013C0.415,-0.026 0.398,-0.042 0.382,-0.061L0.241,-0.225Z" style="fill:white;fill-rule:nonzero;"/>
            </g>
            <g transform="matrix(-7.07627,0,0,6.17114,34662.9,-26817.5)">
                <path d="M5883.63,4541C5883.63,4507.06 5859.6,4479.5 5830,4479.5L3960.39,4479.5C3930.79,4479.5 3906.76,4507.06 3906.76,4541L3906.76,5096.99C3906.76,5130.94 3930.79,5158.49 3960.39,5158.49L5830,5158.49C5859.6,5158.49 5883.63,5130.94 5883.63,5096.99L5883.63,4541Z" style="fill:rgb(28,121,188);"/>
            </g>
            <g transform="matrix(-92.6665,0,0,92.6665,220965,-194953)">
                <g transform="matrix(50,0,0,50,2313.2,2150.42)">
                    <path d="M0.065,-0.513C0.065,-0.542 0.073,-0.564 0.09,-0.581C0.107,-0.598 0.129,-0.606 0.158,-0.606L0.488,-0.606C0.493,-0.599 0.497,-0.589 0.501,-0.577C0.504,-0.565 0.506,-0.552 0.506,-0.539C0.506,-0.514 0.501,-0.496 0.49,-0.485C0.478,-0.474 0.464,-0.469 0.446,-0.469L0.235,-0.469L0.235,-0.376L0.46,-0.376C0.465,-0.369 0.469,-0.359 0.473,-0.348C0.476,-0.336 0.478,-0.323 0.478,-0.31C0.478,-0.285 0.473,-0.267 0.462,-0.256C0.451,-0.245 0.437,-0.24 0.419,-0.24L0.235,-0.24L0.235,-0.135L0.492,-0.135C0.497,-0.128 0.501,-0.118 0.505,-0.106C0.508,-0.094 0.51,-0.081 0.51,-0.068C0.51,-0.043 0.505,-0.024 0.494,-0.014C0.483,-0.003 0.468,0.003 0.45,0.003L0.158,0.003C0.129,0.003 0.107,-0.005 0.09,-0.022C0.073,-0.039 0.065,-0.061 0.065,-0.09L0.065,-0.513Z" style="fill:white;fill-rule:nonzero;"/>
                </g>
                <g transform="matrix(50,0,0,50,2340.6,2150.42)">
                    <path d="M0.491,-0.606C0.496,-0.599 0.5,-0.589 0.504,-0.577C0.507,-0.564 0.509,-0.551 0.509,-0.538C0.509,-0.512 0.503,-0.494 0.493,-0.483C0.482,-0.472 0.467,-0.466 0.448,-0.466L0.238,-0.466L0.238,-0.353L0.457,-0.353C0.462,-0.346 0.467,-0.336 0.471,-0.324C0.474,-0.312 0.476,-0.299 0.476,-0.286C0.476,-0.261 0.471,-0.243 0.46,-0.232C0.448,-0.221 0.434,-0.215 0.415,-0.215L0.24,-0.215L0.24,-0.004C0.233,-0.002 0.221,0 0.206,0.002C0.19,0.004 0.174,0.005 0.159,0.005C0.144,0.005 0.13,0.004 0.119,0.002C0.107,-0.001 0.097,-0.005 0.089,-0.011C0.081,-0.017 0.075,-0.025 0.071,-0.036C0.067,-0.047 0.065,-0.061 0.065,-0.078L0.065,-0.513C0.065,-0.542 0.073,-0.564 0.09,-0.581C0.107,-0.598 0.129,-0.606 0.158,-0.606L0.491,-0.606Z" style="fill:white;fill-rule:nonzero;"/>
                </g>
                <g transform="matrix(50,0,0,50,2367.15,2150.42)">
                    <path d="M0.065,-0.513C0.065,-0.542 0.073,-0.564 0.09,-0.581C0.107,-0.598 0.129,-0.606 0.158,-0.606L0.488,-0.606C0.493,-0.599 0.497,-0.589 0.501,-0.577C0.504,-0.565 0.506,-0.552 0.506,-0.539C0.506,-0.514 0.501,-0.496 0.49,-0.485C0.478,-0.474 0.464,-0.469 0.446,-0.469L0.235,-0.469L0.235,-0.376L0.46,-0.376C0.465,-0.369 0.469,-0.359 0.473,-0.348C0.476,-0.336 0.478,-0.323 0.478,-0.31C0.478,-0.285 0.473,-0.267 0.462,-0.256C0.451,-0.245 0.437,-0.24 0.419,-0.24L0.235,-0.24L0.235,-0.135L0.492,-0.135C0.497,-0.128 0.501,-0.118 0.505,-0.106C0.508,-0.094 0.51,-0.081 0.51,-0.068C0.51,-0.043 0.505,-0.024 0.494,-0.014C0.483,-0.003 0.468,0.003 0.45,0.003L0.158,0.003C0.129,0.003 0.107,-0.005 0.09,-0.022C0.073,-0.039 0.065,-0.061 0.065,-0.09L0.065,-0.513Z" style="fill:white;fill-rule:nonzero;"/>
                </g>
                <g transform="matrix(50,0,0,50,2394.59,2150.42)">
                    <path d="M0.241,-0.225L0.241,-0.004C0.234,-0.002 0.222,0 0.206,0.002C0.19,0.004 0.174,0.005 0.159,0.005C0.144,0.005 0.13,0.004 0.119,0.002C0.107,-0.001 0.097,-0.005 0.089,-0.011C0.081,-0.017 0.075,-0.025 0.071,-0.036C0.067,-0.047 0.065,-0.061 0.065,-0.078L0.065,-0.606C0.072,-0.607 0.084,-0.609 0.1,-0.612C0.116,-0.614 0.131,-0.615 0.146,-0.615C0.161,-0.615 0.175,-0.614 0.187,-0.612C0.198,-0.609 0.208,-0.605 0.216,-0.599C0.224,-0.593 0.23,-0.585 0.234,-0.574C0.238,-0.563 0.24,-0.549 0.24,-0.532L0.24,-0.373L0.517,-0.756C0.518,-0.756 0.728,-0.754 0.728,-0.754C0.726,-0.753 0.607,-0.596 0.589,-0.569L0.395,-0.3C0.412,-0.281 0.429,-0.262 0.448,-0.242C0.466,-0.222 0.484,-0.202 0.502,-0.184C0.519,-0.165 0.536,-0.146 0.553,-0.129C0.569,-0.112 0.583,-0.097 0.595,-0.084C0.595,-0.069 0.592,-0.056 0.587,-0.045C0.582,-0.034 0.575,-0.024 0.566,-0.016C0.557,-0.008 0.546,-0.002 0.535,0.002C0.524,0.006 0.512,0.008 0.499,0.008C0.472,0.008 0.449,0.001 0.432,-0.013C0.415,-0.026 0.398,-0.042 0.382,-0.061L0.241,-0.225Z" style="fill:white;fill-rule:nonzero;"/>
                </g>
                <g transform="matrix(50,0,0,50,2425.3,2150.42)">
                    <path d="M0.037,-0.466C0.032,-0.473 0.028,-0.483 0.024,-0.496C0.02,-0.509 0.018,-0.522 0.018,-0.536C0.018,-0.562 0.024,-0.581 0.036,-0.592C0.047,-0.603 0.062,-0.609 0.081,-0.609L0.517,-0.609C0.522,-0.602 0.526,-0.592 0.53,-0.579C0.534,-0.566 0.536,-0.553 0.536,-0.539C0.536,-0.513 0.53,-0.494 0.519,-0.483C0.507,-0.472 0.492,-0.466 0.473,-0.466L0.362,-0.466L0.362,-0.004C0.355,-0.002 0.343,0 0.328,0.002C0.312,0.004 0.296,0.005 0.281,0.005C0.266,0.005 0.252,0.004 0.241,0.002C0.229,-0.001 0.219,-0.005 0.211,-0.011C0.203,-0.017 0.197,-0.025 0.193,-0.036C0.189,-0.047 0.187,-0.061 0.187,-0.078L0.187,-0.466L0.037,-0.466Z" style="fill:white;fill-rule:nonzero;"/>
                </g>
            </g>
            <g transform="matrix(-11.4407,0,0,11.4407,67702.3,-37422)">
                <g transform="matrix(5.05522e-17,-0.640614,0.640614,5.05522e-17,2424.69,6244.04)">
                    <circle cx="4044.51" cy="4342.35" r="87.965" style="fill:rgb(240,214,0);"/>
                </g>
                <g transform="matrix(5.05522e-17,-0.640614,0.640614,5.05522e-17,2424.69,6117.27)">
                    <circle cx="4044.51" cy="4342.35" r="87.965" style="fill:rgb(208,110,3);"/>
                </g>
                <g transform="matrix(5.05522e-17,-0.640614,0.640614,5.05522e-17,2424.69,5990.5)">
                    <circle cx="4044.51" cy="4342.35" r="87.965" style="fill:rgb(171,0,0);"/>
                </g>
            </g>
            <g transform="matrix(-2.29263,0,0,2.29263,12028.9,-7038.89)">
                <g transform="matrix(587.881,0,0,587.881,2185.72,3216.45)">
                    <path d="M0.491,-0.606C0.496,-0.599 0.5,-0.589 0.504,-0.577C0.507,-0.564 0.509,-0.551 0.509,-0.538C0.509,-0.512 0.503,-0.494 0.493,-0.483C0.482,-0.472 0.467,-0.466 0.448,-0.466L0.238,-0.466L0.238,-0.353L0.457,-0.353C0.462,-0.346 0.467,-0.336 0.471,-0.324C0.474,-0.312 0.476,-0.299 0.476,-0.286C0.476,-0.261 0.471,-0.243 0.46,-0.232C0.448,-0.221 0.434,-0.215 0.415,-0.215L0.24,-0.215L0.24,-0.004C0.233,-0.002 0.221,0 0.206,0.002C0.19,0.004 0.174,0.005 0.159,0.005C0.144,0.005 0.13,0.004 0.119,0.002C0.107,-0.001 0.097,-0.005 0.089,-0.011C0.081,-0.017 0.075,-0.025 0.071,-0.036C0.067,-0.047 0.065,-0.061 0.065,-0.078L0.065,-0.513C0.065,-0.542 0.073,-0.564 0.09,-0.581C0.107,-0.598 0.129,-0.606 0.158,-0.606L0.491,-0.606Z" style="fill-rule:nonzero;"/>
                </g>
                <g transform="matrix(587.881,0,0,587.881,2474.37,3216.45)">
                    <path d="M0.022,-0.081C0.022,-0.109 0.031,-0.132 0.048,-0.151C0.065,-0.17 0.089,-0.179 0.119,-0.179C0.149,-0.179 0.173,-0.17 0.19,-0.151C0.207,-0.132 0.216,-0.109 0.216,-0.081C0.216,-0.053 0.207,-0.03 0.19,-0.011C0.173,0.008 0.149,0.017 0.119,0.017C0.089,0.017 0.065,0.008 0.048,-0.011C0.031,-0.03 0.022,-0.053 0.022,-0.081Z" style="fill-rule:nonzero;"/>
                </g>
                <g transform="matrix(587.881,0,0,587.881,2614.29,3216.45)">
                    <path d="M0.607,-0.004C0.6,-0.002 0.588,0 0.573,0.002C0.557,0.004 0.541,0.005 0.526,0.005C0.511,0.005 0.497,0.004 0.486,0.002C0.474,-0.001 0.464,-0.005 0.456,-0.011C0.448,-0.017 0.442,-0.025 0.438,-0.036C0.434,-0.047 0.432,-0.061 0.432,-0.078L0.432,-0.234L0.24,-0.234L0.24,-0.004C0.233,-0.002 0.221,0 0.206,0.002C0.19,0.004 0.174,0.005 0.159,0.005C0.144,0.005 0.13,0.004 0.119,0.002C0.107,-0.001 0.097,-0.005 0.089,-0.011C0.081,-0.017 0.075,-0.025 0.071,-0.036C0.067,-0.047 0.065,-0.061 0.065,-0.078L0.065,-0.606C0.072,-0.607 0.084,-0.609 0.1,-0.612C0.116,-0.614 0.131,-0.615 0.146,-0.615C0.161,-0.615 0.175,-0.614 0.187,-0.612C0.198,-0.609 0.208,-0.605 0.216,-0.599C0.224,-0.593 0.23,-0.585 0.234,-0.574C0.238,-0.563 0.24,-0.549 0.24,-0.532L0.24,-0.372L0.432,-0.372L0.432,-0.606C0.439,-0.607 0.451,-0.609 0.467,-0.612C0.483,-0.614 0.498,-0.615 0.513,-0.615C0.528,-0.615 0.542,-0.614 0.554,-0.612C0.565,-0.609 0.575,-0.605 0.583,-0.599C0.591,-0.593 0.597,-0.585 0.601,-0.574C0.605,-0.563 0.607,-0.549 0.607,-0.532L0.607,-0.004Z" style="fill-rule:nonzero;"/>
                </g>
                <g transform="matrix(587.881,0,0,587.881,3009.34,3216.45)">
                    <path d="M0.022,-0.081C0.022,-0.109 0.031,-0.132 0.048,-0.151C0.065,-0.17 0.089,-0.179 0.119,-0.179C0.149,-0.179 0.173,-0.17 0.19,-0.151C0.207,-0.132 0.216,-0.109 0.216,-0.081C0.216,-0.053 0.207,-0.03 0.19,-0.011C0.173,0.008 0.149,0.017 0.119,0.017C0.089,0.017 0.065,0.008 0.048,-0.011C0.031,-0.03 0.022,-0.053 0.022,-0.081Z" style="fill-rule:nonzero;"/>
                </g>
                <g transform="matrix(587.881,0,0,587.881,3149.26,3216.45)">
                    <path d="M0.602,-0.224C0.602,-0.188 0.596,-0.155 0.584,-0.126C0.571,-0.096 0.553,-0.071 0.53,-0.05C0.507,-0.029 0.478,-0.012 0.445,-0.001C0.412,0.01 0.374,0.016 0.332,0.016C0.29,0.016 0.252,0.01 0.219,-0.001C0.186,-0.012 0.157,-0.029 0.134,-0.05C0.111,-0.071 0.093,-0.096 0.081,-0.126C0.068,-0.155 0.062,-0.188 0.062,-0.224L0.062,-0.606C0.069,-0.607 0.081,-0.609 0.097,-0.612C0.113,-0.614 0.128,-0.615 0.143,-0.615C0.158,-0.615 0.172,-0.614 0.184,-0.612C0.195,-0.609 0.205,-0.605 0.213,-0.599C0.221,-0.593 0.227,-0.585 0.231,-0.574C0.235,-0.563 0.237,-0.549 0.237,-0.532L0.237,-0.227C0.237,-0.195 0.246,-0.17 0.264,-0.152C0.281,-0.134 0.304,-0.125 0.332,-0.125C0.361,-0.125 0.384,-0.134 0.401,-0.152C0.418,-0.17 0.427,-0.195 0.427,-0.227L0.427,-0.606C0.434,-0.607 0.446,-0.609 0.462,-0.612C0.478,-0.614 0.493,-0.615 0.508,-0.615C0.523,-0.615 0.537,-0.614 0.549,-0.612C0.56,-0.609 0.57,-0.605 0.578,-0.599C0.586,-0.593 0.592,-0.585 0.596,-0.574C0.6,-0.563 0.602,-0.549 0.602,-0.532L0.602,-0.224Z" style="fill-rule:nonzero;"/>
                </g>
                <g transform="matrix(587.881,0,0,587.881,3533.73,3216.45)">
                    <path d="M0.022,-0.081C0.022,-0.109 0.031,-0.132 0.048,-0.151C0.065,-0.17 0.089,-0.179 0.119,-0.179C0.149,-0.179 0.173,-0.17 0.19,-0.151C0.207,-0.132 0.216,-0.109 0.216,-0.081C0.216,-0.053 0.207,-0.03 0.19,-0.011C0.173,0.008 0.149,0.017 0.119,0.017C0.089,0.017 0.065,0.008 0.048,-0.011C0.031,-0.03 0.022,-0.053 0.022,-0.081Z" style="fill-rule:nonzero;"/>
                </g>
            </g>
        </g>
    </g>
</svg>
