<?xml version="1.0" encoding="UTF-8" standalone="no"?>
<!DOCTYPE svg PUBLIC "-//W3C//DTD SVG 1.1//EN" "http://www.w3.org/Graphics/SVG/1.1/DTD/svg11.dtd">
<svg width="100%" height="100%" viewBox="0 0 1200 1000" version="1.1" xmlns="http://www.w3.org/2000/svg" xmlns:xlink="http://www.w3.org/1999/xlink" xml:space="preserve" xmlns:serif="http://www.serif.com/" style="fill-rule:evenodd;clip-rule:evenodd;stroke-linejoin:round;stroke-miterlimit:2;">
    <g transform="matrix(2.62085,0,0,2.62085,-49.0873,-50.5339)">
        <g transform="matrix(0.915733,0,0,0.763111,18.7295,19.2815)">
            <rect x="0" y="0" width="500" height="500" style="fill:rgb(252,214,73);fill-rule:nonzero;"/>
        </g>
        <g transform="matrix(1,0,0,1,0,-20.7992)">
            <g transform="matrix(0.915733,0,0,0.915733,18.7295,19.2815)">
                <path d="M48.656,339.426C48.656,331.129 138.803,324.402 249.997,324.402C361.205,324.402 451.345,331.129 451.345,339.426C451.345,347.721 361.205,354.448 249.997,354.448C138.803,354.448 48.656,347.721 48.656,339.426Z" style="fill:rgb(227,193,62);fill-rule:nonzero;"/>
            </g>
            <g transform="matrix(0.915733,0,0,0.915733,18.7295,19.2815)">
                <path d="M453.521,278.919L436.668,278.919L436.668,242.804L397.663,242.804L397.663,278.919L362.512,278.919L416.202,172.982L374.791,172.982L321.1,278.919L321.1,314.553L397.663,314.553L397.663,341.518L436.668,341.518L436.668,314.553L453.521,314.553L453.521,278.919Z" style="fill:rgb(27,31,34);fill-rule:nonzero;"/>
            </g>
            <g transform="matrix(0.915733,0,0,0.915733,18.7295,19.2815)">
                <clipPath id="_clip1">
                    <rect x="162.151" y="172.982" width="200.254" height="168.184"/>
                </clipPath>
                <g clip-path="url(#_clip1)">
                    <path d="M167.171,270.451C167.171,217.927 209.752,175.344 262.277,175.344C314.806,175.344 357.385,217.927 357.385,270.451C357.385,322.978 314.806,365.558 262.277,365.558C209.752,365.558 167.171,322.978 167.171,270.451Z" style="fill:rgb(84,88,89);fill-rule:nonzero;"/>
                    <path d="M183.178,270.451C183.178,226.765 218.593,191.35 262.277,191.35C305.964,191.35 341.38,226.765 341.38,270.451C341.38,314.139 305.964,349.553 262.277,349.553C218.593,349.553 183.178,314.139 183.178,270.451Z" style="fill:rgb(65,68,70);fill-rule:nonzero;"/>
                    <path d="M262.277,204.098C225.69,204.098 195.924,233.864 195.924,270.451C195.924,307.04 225.69,336.807 262.277,336.807C298.867,336.807 328.634,307.04 328.634,270.451C328.634,233.864 298.867,204.098 262.277,204.098ZM262.277,337.988C225.037,337.988 194.742,307.691 194.742,270.451C194.742,233.212 225.037,202.916 262.277,202.916C299.519,202.916 329.814,233.212 329.814,270.451C329.814,307.691 299.519,337.988 262.277,337.988Z" style="fill:rgb(109,113,114);fill-rule:nonzero;"/>
                    <path d="M262.277,204.275C225.788,204.275 196.1,233.962 196.1,270.451C196.1,306.943 225.788,336.631 262.277,336.631C298.771,336.631 328.457,306.943 328.457,270.451C328.457,233.962 298.771,204.275 262.277,204.275ZM262.277,337.222C225.463,337.222 195.509,307.27 195.509,270.451C195.509,233.637 225.463,203.684 262.277,203.684C299.094,203.684 329.049,233.637 329.049,270.451C329.049,307.27 299.094,337.222 262.277,337.222Z" style="fill:rgb(52,56,58);fill-rule:nonzero;"/>
                    <path d="M262.277,186.525C216.001,186.525 178.351,224.176 178.351,270.451C178.351,316.729 216.001,354.379 262.277,354.379C308.557,354.379 346.206,316.729 346.206,270.451C346.206,224.176 308.557,186.525 262.277,186.525ZM262.277,355.561C215.348,355.561 177.171,317.381 177.171,270.451C177.171,223.522 215.348,185.346 262.277,185.346C309.208,185.346 347.386,223.522 347.386,270.451C347.386,317.381 309.208,355.561 262.277,355.561Z" style="fill:rgb(109,113,114);fill-rule:nonzero;"/>
                    <path d="M262.277,186.828C216.166,186.828 178.651,224.341 178.651,270.451C178.651,316.564 216.166,354.078 262.277,354.078C308.392,354.078 345.905,316.564 345.905,270.451C345.905,224.341 308.392,186.828 262.277,186.828ZM262.277,354.671C215.842,354.671 178.061,316.891 178.061,270.451C178.061,224.015 215.842,186.234 262.277,186.234C308.716,186.234 346.495,224.015 346.495,270.451C346.495,316.891 308.716,354.671 262.277,354.671Z" style="fill:rgb(52,56,58);fill-rule:nonzero;"/>
                    <path d="M312.353,340.785L311.099,352.04C311.663,351.703 312.223,351.358 312.778,351.013L313.127,340.339L312.353,340.785Z" style="fill:rgb(65,68,70);fill-rule:nonzero;"/>
                    <path d="M323.039,331.238L323.803,342.942C325.23,341.727 326.632,340.463 328.005,339.146L325.57,328.708L323.039,331.238Z" style="fill:rgb(65,68,70);fill-rule:nonzero;"/>
                    <path d="M328.85,325.428L330.552,336.624C331.008,336.151 331.461,335.676 331.905,335.195L329.48,324.797L328.85,325.428Z" style="fill:rgb(65,68,70);fill-rule:nonzero;"/>
                    <path d="M336.701,313.44L340.466,324.549C341.534,323.005 342.559,321.42 343.545,319.792L338.491,310.34L336.701,313.44Z" style="fill:rgb(65,68,70);fill-rule:nonzero;"/>
                    <path d="M340.811,306.324L345.351,316.697C345.67,316.125 345.983,315.547 346.289,314.967L341.254,305.551L340.811,306.324Z" style="fill:rgb(65,68,70);fill-rule:nonzero;"/>
                    <path d="M345.291,292.713L351.803,302.469C352.435,300.7 353.015,298.903 353.546,297.075L346.217,289.256L345.291,292.713Z" style="fill:rgb(65,68,70);fill-rule:nonzero;"/>
                    <path d="M347.417,284.777L354.488,293.62C354.649,292.983 354.803,292.346 354.947,291.705L347.646,283.914L347.417,284.777Z" style="fill:rgb(65,68,70);fill-rule:nonzero;"/>
                    <path d="M348.222,270.469L357.039,278.205C357.19,276.334 357.286,274.45 357.326,272.547L348.224,266.888L348.222,270.469Z" style="fill:rgb(65,68,70);fill-rule:nonzero;"/>
                    <path d="M348.222,262.252L357.342,268.965C357.331,268.309 357.315,267.65 357.289,266.997L348.221,261.36L348.222,262.252Z" style="fill:rgb(65,68,70);fill-rule:nonzero;"/>
                    <path d="M345.297,248.223L355.816,253.415C355.477,251.569 355.081,249.723 354.629,247.874L344.372,244.765L345.297,248.223Z" style="fill:rgb(65,68,70);fill-rule:nonzero;"/>
                    <path d="M343.17,240.285L353.716,244.41C353.538,243.779 353.351,243.148 353.155,242.523L342.938,239.424L343.17,240.285Z" style="fill:rgb(65,68,70);fill-rule:nonzero;"/>
                    <path d="M336.715,227.491L348.217,229.784C347.412,228.09 346.552,226.41 345.637,224.742L334.925,224.393L336.715,227.491Z" style="fill:rgb(65,68,70);fill-rule:nonzero;"/>
                    <path d="M332.604,220.376L343.859,221.632C343.524,221.068 343.18,220.507 342.829,219.951L332.158,219.606L332.604,220.376Z" style="fill:rgb(65,68,70);fill-rule:nonzero;"/>
                    <path d="M323.057,209.69L334.764,208.928C333.548,207.498 332.281,206.098 330.966,204.723L320.527,207.158L323.057,209.69Z" style="fill:rgb(65,68,70);fill-rule:nonzero;"/>
                    <path d="M317.248,203.879L328.442,202.181C327.974,201.722 327.496,201.27 327.014,200.824L316.617,203.25L317.248,203.879Z" style="fill:rgb(65,68,70);fill-rule:nonzero;"/>
                    <path d="M305.259,196.027L316.37,192.263C314.824,191.197 313.239,190.172 311.611,189.186L302.16,194.239L305.259,196.027Z" style="fill:rgb(65,68,70);fill-rule:nonzero;"/>
                    <path d="M298.144,191.92L308.519,187.38C307.944,187.06 307.367,186.747 306.787,186.439L297.371,191.474L298.144,191.92Z" style="fill:rgb(65,68,70);fill-rule:nonzero;"/>
                    <path d="M284.53,187.44L294.289,180.927C292.52,180.296 290.725,179.717 288.896,179.186L281.074,186.511L284.53,187.44Z" style="fill:rgb(65,68,70);fill-rule:nonzero;"/>
                    <path d="M276.595,185.311L285.439,178.243C284.806,178.082 284.165,177.929 283.525,177.783L275.734,185.082L276.595,185.311Z" style="fill:rgb(65,68,70);fill-rule:nonzero;"/>
                    <path d="M262.287,184.508L270.026,175.691C268.153,175.539 266.271,175.443 264.367,175.403L258.706,184.506L262.287,184.508Z" style="fill:rgb(65,68,70);fill-rule:nonzero;"/>
                    <path d="M254.071,184.506L260.784,175.391C260.129,175.397 259.471,175.416 258.815,175.44L253.178,184.508L254.071,184.506Z" style="fill:rgb(65,68,70);fill-rule:nonzero;"/>
                    <path d="M240.041,187.434L245.236,176.914C243.389,177.254 241.544,177.646 239.695,178.103L236.585,188.36L240.041,187.434Z" style="fill:rgb(65,68,70);fill-rule:nonzero;"/>
                    <path d="M232.105,189.56L236.229,179.014C235.599,179.191 234.97,179.38 234.342,179.574L231.243,189.79L232.105,189.56Z" style="fill:rgb(65,68,70);fill-rule:nonzero;"/>
                    <path d="M219.312,196.017L221.606,184.513C219.91,185.317 218.231,186.173 216.563,187.093L216.213,197.807L219.312,196.017Z" style="fill:rgb(65,68,70);fill-rule:nonzero;"/>
                    <path d="M212.196,200.123L213.452,188.871C212.887,189.207 212.328,189.551 211.772,189.9L211.424,200.57L212.196,200.123Z" style="fill:rgb(65,68,70);fill-rule:nonzero;"/>
                    <path d="M201.511,209.671L200.748,197.969C199.315,199.183 197.919,200.445 196.547,201.764L198.978,212.203L201.511,209.671Z" style="fill:rgb(65,68,70);fill-rule:nonzero;"/>
                    <path d="M195.7,215.482L194,204.288C193.541,204.76 193.093,205.234 192.644,205.717L195.069,216.113L195.7,215.482Z" style="fill:rgb(65,68,70);fill-rule:nonzero;"/>
                    <path d="M187.849,227.473L184.085,216.36C183.016,217.906 181.991,219.487 181.007,221.117L186.058,230.57L187.849,227.473Z" style="fill:rgb(65,68,70);fill-rule:nonzero;"/>
                    <path d="M183.741,234.586L179.202,224.213C178.88,224.785 178.568,225.363 178.261,225.943L183.296,235.359L183.741,234.586Z" style="fill:rgb(65,68,70);fill-rule:nonzero;"/>
                    <path d="M179.261,248.198L172.748,238.442C172.115,240.209 171.535,242.005 171.006,243.832L178.333,251.655L179.261,248.198Z" style="fill:rgb(65,68,70);fill-rule:nonzero;"/>
                    <path d="M177.134,256.133L170.063,247.291C169.902,247.927 169.751,248.563 169.604,249.205L176.901,256.998L177.134,256.133Z" style="fill:rgb(65,68,70);fill-rule:nonzero;"/>
                    <path d="M176.33,270.443L167.514,262.705C167.359,264.575 167.265,266.458 167.225,268.359L176.329,274.021L176.33,270.443Z" style="fill:rgb(65,68,70);fill-rule:nonzero;"/>
                    <path d="M176.329,278.657L167.209,271.944C167.218,272.602 167.238,273.258 167.26,273.912L176.327,279.552L176.329,278.657Z" style="fill:rgb(65,68,70);fill-rule:nonzero;"/>
                    <path d="M179.255,292.688L168.735,287.492C169.071,289.34 169.468,291.187 169.922,293.033L180.18,296.146L179.255,292.688Z" style="fill:rgb(65,68,70);fill-rule:nonzero;"/>
                    <path d="M181.38,300.623L170.836,296.499C171.015,297.131 171.203,297.758 171.393,298.388L181.608,301.488L181.38,300.623Z" style="fill:rgb(65,68,70);fill-rule:nonzero;"/>
                    <path d="M187.838,313.419L176.331,311.123C177.135,312.819 177.996,314.499 178.911,316.165L189.624,316.518L187.838,313.419Z" style="fill:rgb(65,68,70);fill-rule:nonzero;"/>
                    <path d="M191.945,320.532L180.69,319.278C181.027,319.842 181.374,320.399 181.72,320.959L192.39,321.307L191.945,320.532Z" style="fill:rgb(65,68,70);fill-rule:nonzero;"/>
                    <path d="M201.494,331.219L189.785,331.979C191.002,333.409 192.267,334.812 193.582,336.184L204.022,333.752L201.494,331.219Z" style="fill:rgb(65,68,70);fill-rule:nonzero;"/>
                    <path d="M207.303,337.029L196.105,338.73C196.578,339.189 197.057,339.637 197.536,340.086L207.935,337.664L207.303,337.029Z" style="fill:rgb(65,68,70);fill-rule:nonzero;"/>
                    <path d="M197.284,270.451C197.284,234.559 226.385,205.459 262.277,205.459C298.175,205.459 327.271,234.559 327.271,270.451C327.271,306.347 298.175,335.445 262.277,335.445C226.385,335.445 197.284,306.347 197.284,270.451Z" style="fill:rgb(27,31,34);fill-rule:nonzero;"/>
                    <path d="M262.146,197.033C261.144,199.042 260.344,200.788 260.032,201.61C260.499,200.868 261.41,199.173 262.409,197.162C263.411,195.154 264.213,193.404 264.522,192.586C264.057,193.328 263.146,195.023 262.146,197.033Z" style="fill:rgb(84,88,89);fill-rule:nonzero;"/>
                    <path d="M257.538,197.185C256.665,199.254 255.975,201.049 255.713,201.887C256.134,201.115 256.937,199.368 257.807,197.299C258.68,195.232 259.372,193.438 259.63,192.6C259.209,193.369 258.409,195.118 257.538,197.185Z" style="fill:rgb(84,88,89);fill-rule:nonzero;"/>
                    <path d="M252.946,197.629C252.205,199.746 251.628,201.582 251.422,202.434C251.794,201.638 252.485,199.844 253.223,197.726C253.966,195.606 254.543,193.772 254.748,192.92C254.378,193.713 253.687,195.511 252.946,197.629Z" style="fill:rgb(84,88,89);fill-rule:nonzero;"/>
                    <path d="M248.392,198.359C247.786,200.52 247.327,202.386 247.173,203.252C247.491,202.434 248.069,200.598 248.675,198.438C249.282,196.276 249.743,194.408 249.894,193.547C249.576,194.361 248.997,196.199 248.392,198.359Z" style="fill:rgb(84,88,89);fill-rule:nonzero;"/>
                    <path d="M243.894,199.373C243.423,201.568 243.083,203.46 242.981,204.332C243.252,203.498 243.711,201.629 244.181,199.434C244.65,197.239 244.994,195.347 245.09,194.477C244.822,195.309 244.362,197.179 243.894,199.373Z" style="fill:rgb(84,88,89);fill-rule:nonzero;"/>
                    <path d="M239.466,200.67C239.137,202.887 238.914,204.799 238.869,205.676C239.086,204.825 239.426,202.933 239.758,200.712C240.09,198.491 240.312,196.58 240.354,195.705C240.139,196.553 239.796,198.45 239.466,200.67Z" style="fill:rgb(84,88,89);fill-rule:nonzero;"/>
                    <path d="M235.13,202.242C234.94,204.477 234.838,206.395 234.848,207.272C235.012,206.412 235.232,204.501 235.424,202.265C235.614,200.024 235.716,198.107 235.704,197.229C235.542,198.091 235.32,200.004 235.13,202.242Z" style="fill:rgb(84,88,89);fill-rule:nonzero;"/>
                    <path d="M230.9,204.08C230.85,206.323 230.87,208.247 230.934,209.119C231.042,208.252 231.146,206.33 231.194,204.087C231.245,201.842 231.226,199.917 231.158,199.042C231.052,199.913 230.95,201.836 230.9,204.08Z" style="fill:rgb(84,88,89);fill-rule:nonzero;"/>
                    <path d="M226.795,206.184C226.887,208.423 227.025,210.342 227.145,211.209C227.199,210.336 227.183,208.411 227.09,206.17C227.001,203.926 226.859,202.008 226.737,201.137C226.685,202.014 226.704,203.939 226.795,206.184Z" style="fill:rgb(84,88,89);fill-rule:nonzero;"/>
                    <path d="M222.828,208.539C223.063,210.768 223.322,212.674 223.496,213.533C223.495,212.657 223.354,210.737 223.123,208.507C222.892,206.272 222.632,204.366 222.454,203.506C222.457,204.385 222.597,206.305 222.828,208.539Z" style="fill:rgb(84,88,89);fill-rule:nonzero;"/>
                    <path d="M219.019,211.139C219.394,213.348 219.771,215.235 219.999,216.082C219.941,215.207 219.683,213.297 219.313,211.088C218.941,208.873 218.559,206.986 218.329,206.14C218.389,207.014 218.647,208.923 219.019,211.139Z" style="fill:rgb(84,88,89);fill-rule:nonzero;"/>
                    <path d="M215.381,213.971C215.893,216.153 216.388,218.013 216.669,218.844C216.558,217.975 216.178,216.086 215.67,213.902C215.16,211.717 214.661,209.858 214.378,209.025C214.492,209.896 214.87,211.786 215.381,213.971Z" style="fill:rgb(84,88,89);fill-rule:nonzero;"/>
                    <path d="M211.929,217.027C212.577,219.173 213.185,220.997 213.52,221.809C213.354,220.949 212.854,219.088 212.211,216.942C211.564,214.791 210.951,212.968 210.617,212.155C210.784,213.017 211.28,214.881 211.929,217.027Z" style="fill:rgb(84,88,89);fill-rule:nonzero;"/>
                    <path d="M208.673,220.295C209.454,222.395 210.179,224.18 210.561,224.969C210.341,224.119 209.727,222.293 208.951,220.193C208.169,218.087 207.442,216.306 207.059,215.516C207.28,216.365 207.893,218.191 208.673,220.295Z" style="fill:rgb(84,88,89);fill-rule:nonzero;"/>
                    <path d="M205.63,223.761C206.541,225.807 207.376,227.543 207.809,228.307C207.536,227.475 206.808,225.688 205.899,223.639C204.989,221.587 204.15,219.854 203.718,219.09C203.993,219.926 204.719,221.71 205.63,223.761Z" style="fill:rgb(84,88,89);fill-rule:nonzero;"/>
                    <path d="M202.81,227.41C203.848,229.395 204.788,231.074 205.271,231.81C204.945,230.996 204.105,229.261 203.072,227.271C202.035,225.281 201.089,223.605 200.607,222.869C200.935,223.687 201.773,225.423 202.81,227.41Z" style="fill:rgb(84,88,89);fill-rule:nonzero;"/>
                    <path d="M200.226,231.229C201.385,233.146 202.431,234.764 202.956,235.467C202.581,234.673 201.636,232.995 200.477,231.074C199.315,229.154 198.268,227.541 197.743,226.836C198.121,227.629 199.064,229.311 200.226,231.229Z" style="fill:rgb(84,88,89);fill-rule:nonzero;"/>
                    <path d="M197.884,235.201C199.162,237.045 200.308,238.591 200.877,239.262C200.452,238.494 199.402,236.877 198.128,235.032C196.848,233.191 195.699,231.645 195.132,230.975C195.557,231.744 196.607,233.361 197.884,235.201Z" style="fill:rgb(84,88,89);fill-rule:nonzero;"/>
                    <path d="M195.799,239.317C197.191,241.072 198.431,242.547 199.04,243.181C198.566,242.44 197.417,240.893 196.03,239.131C194.638,237.374 193.394,235.902 192.786,235.269C193.259,236.011 194.409,237.56 195.799,239.317Z" style="fill:rgb(84,88,89);fill-rule:nonzero;"/>
                    <path d="M193.976,243.553C195.477,245.218 196.805,246.612 197.452,247.206C196.935,246.496 195.688,245.022 194.195,243.354C192.693,241.688 191.36,240.296 190.714,239.703C191.234,240.412 192.478,241.885 193.976,243.553Z" style="fill:rgb(84,88,89);fill-rule:nonzero;"/>
                    <path d="M192.42,247.895C194.023,249.463 195.437,250.77 196.12,251.321C195.56,250.646 194.224,249.256 192.629,247.682C191.025,246.114 189.608,244.809 188.924,244.258C189.487,244.935 190.823,246.326 192.42,247.895Z" style="fill:rgb(84,88,89);fill-rule:nonzero;"/>
                    <path d="M191.142,252.327C192.839,253.791 194.333,255.006 195.051,255.516C194.449,254.875 193.027,253.572 191.336,252.1C189.637,250.637 188.142,249.422 187.423,248.914C188.029,249.554 189.449,250.861 191.142,252.327Z" style="fill:rgb(84,88,89);fill-rule:nonzero;"/>
                    <path d="M190.145,256.83C191.93,258.185 193.498,259.304 194.246,259.767C193.605,259.164 192.104,257.953 190.324,256.593C188.536,255.236 186.968,254.12 186.221,253.659C186.863,254.26 188.363,255.474 190.145,256.83Z" style="fill:rgb(84,88,89);fill-rule:nonzero;"/>
                    <path d="M189.431,261.386C191.299,262.625 192.935,263.643 193.71,264.061C193.033,263.498 191.459,262.385 189.596,261.139C187.728,259.896 186.089,258.882 185.317,258.468C185.997,259.025 187.57,260.146 189.431,261.386Z" style="fill:rgb(84,88,89);fill-rule:nonzero;"/>
                    <path d="M189.006,265.979C190.946,267.1 192.643,268.011 193.446,268.379C192.731,267.863 191.093,266.849 189.156,265.721C187.212,264.6 185.514,263.688 184.716,263.325C185.431,263.84 187.07,264.857 189.006,265.979Z" style="fill:rgb(84,88,89);fill-rule:nonzero;"/>
                    <path d="M188.868,270.59C190.878,271.586 192.629,272.389 193.45,272.706C192.707,272.233 191.007,271.325 189.003,270.321C186.992,269.323 185.242,268.521 184.421,268.208C185.166,268.679 186.867,269.59 188.868,270.59Z" style="fill:rgb(84,88,89);fill-rule:nonzero;"/>
                    <path d="M189.022,275.198C191.092,276.066 192.887,276.762 193.729,277.023C192.958,276.598 191.203,275.799 189.14,274.923C187.069,274.053 185.272,273.364 184.437,273.104C185.207,273.523 186.962,274.328 189.022,275.198Z" style="fill:rgb(84,88,89);fill-rule:nonzero;"/>
                    <path d="M189.465,279.79C191.584,280.525 193.421,281.106 194.275,281.314C193.479,280.939 191.679,280.252 189.565,279.508C187.444,278.769 185.606,278.194 184.756,277.988C185.551,278.357 187.355,279.051 189.465,279.79Z" style="fill:rgb(84,88,89);fill-rule:nonzero;"/>
                    <path d="M190.195,284.344C192.355,284.945 194.224,285.408 195.092,285.564C194.273,285.238 192.435,284.667 190.279,284.057C188.114,283.449 186.247,282.993 185.384,282.84C186.2,283.161 188.046,283.74 190.195,284.344Z" style="fill:rgb(84,88,89);fill-rule:nonzero;"/>
                    <path d="M191.212,288.844C193.403,289.307 195.298,289.654 196.175,289.752C195.337,289.48 193.465,289.024 191.274,288.551C189.077,288.082 187.182,287.742 186.313,287.644C187.149,287.912 189.026,288.377 191.212,288.844Z" style="fill:rgb(84,88,89);fill-rule:nonzero;"/>
                    <path d="M192.506,293.271C194.724,293.593 196.638,293.82 197.518,293.865C196.664,293.645 194.765,293.309 192.554,292.973C190.328,292.644 188.419,292.427 187.542,292.379C188.394,292.596 190.297,292.941 192.506,293.271Z" style="fill:rgb(84,88,89);fill-rule:nonzero;"/>
                    <path d="M194.077,297.605C196.31,297.793 198.235,297.897 199.114,297.885C198.251,297.723 196.334,297.504 194.106,297.307C191.864,297.117 189.944,297.021 189.064,297.03C189.932,297.189 191.851,297.417 194.077,297.605Z" style="fill:rgb(84,88,89);fill-rule:nonzero;"/>
                    <path d="M195.917,301.835C198.157,301.879 200.085,301.864 200.962,301.798C200.089,301.689 198.162,301.59 195.925,301.534C193.678,301.488 191.755,301.511 190.878,301.572C191.752,301.684 193.685,301.788 195.917,301.835Z" style="fill:rgb(84,88,89);fill-rule:nonzero;"/>
                    <path d="M198.021,305.941C200.256,305.845 202.181,305.707 203.052,305.588C202.174,305.533 200.245,305.556 198.008,305.639C195.764,305.733 193.846,305.879 192.974,305.995C193.853,306.049 195.787,306.034 198.021,305.941Z" style="fill:rgb(84,88,89);fill-rule:nonzero;"/>
                    <path d="M200.374,309.906C202.603,309.67 204.512,309.412 205.376,309.236C204.495,309.238 202.571,309.382 200.345,309.605C198.11,309.842 196.206,310.105 195.343,310.278C196.224,310.276 198.153,310.138 200.374,309.906Z" style="fill:rgb(84,88,89);fill-rule:nonzero;"/>
                    <path d="M202.973,313.717C205.183,313.341 207.073,312.964 207.924,312.734C207.046,312.791 205.134,313.055 202.925,313.419C200.709,313.793 198.826,314.178 197.977,314.403C198.856,314.345 200.771,314.086 202.973,313.717Z" style="fill:rgb(84,88,89);fill-rule:nonzero;"/>
                    <path d="M205.807,317.356C207.989,316.842 209.852,316.349 210.688,316.063C209.814,316.177 207.921,316.557 205.741,317.061C203.552,317.575 201.698,318.077 200.863,318.354C201.736,318.241 203.633,317.863 205.807,317.356Z" style="fill:rgb(84,88,89);fill-rule:nonzero;"/>
                    <path d="M208.862,320.81C211.009,320.159 212.835,319.549 213.652,319.214C212.787,319.38 210.925,319.879 208.779,320.521C206.626,321.168 204.808,321.787 203.993,322.115C204.857,321.95 206.726,321.451 208.862,320.81Z" style="fill:rgb(84,88,89);fill-rule:nonzero;"/>
                    <path d="M212.13,324.064C214.23,323.28 216.016,322.557 216.811,322.171C215.956,322.392 214.129,323.007 212.028,323.781C209.922,324.563 208.145,325.296 207.353,325.675C208.203,325.453 210.038,324.839 212.13,324.064Z" style="fill:rgb(84,88,89);fill-rule:nonzero;"/>
                    <path d="M215.597,327.107C217.645,326.194 219.381,325.36 220.148,324.924C219.311,325.201 217.525,325.926 215.476,326.832C213.424,327.746 211.692,328.586 210.928,329.015C211.763,328.739 213.558,328.012 215.597,327.107Z" style="fill:rgb(84,88,89);fill-rule:nonzero;"/>
                    <path d="M219.243,329.926C221.232,328.887 222.911,327.944 223.651,327.462C222.833,327.789 221.096,328.627 219.109,329.66C217.118,330.7 215.445,331.647 214.707,332.124C215.522,331.798 217.268,330.959 219.243,329.926Z" style="fill:rgb(84,88,89);fill-rule:nonzero;"/>
                    <path d="M244.164,341.594C245.627,339.896 246.846,338.402 247.352,337.68C246.713,338.286 245.406,339.704 243.938,341.396C242.471,343.096 241.263,344.594 240.753,345.307C241.39,344.705 242.706,343.283 244.164,341.594Z" style="fill:rgb(84,88,89);fill-rule:nonzero;"/>
                    <path d="M248.669,342.593C250.021,340.806 251.143,339.238 251.602,338.485C251,339.131 249.789,340.626 248.429,342.406C247.07,344.197 245.963,345.77 245.495,346.512C246.094,345.869 247.318,344.368 248.669,342.593Z" style="fill:rgb(84,88,89);fill-rule:nonzero;"/>
                    <path d="M253.225,343.307C254.466,341.436 255.484,339.802 255.896,339.021C255.336,339.704 254.221,341.271 252.975,343.136C251.732,345.007 250.724,346.646 250.304,347.414C250.861,346.738 251.988,345.162 253.225,343.307Z" style="fill:rgb(84,88,89);fill-rule:nonzero;"/>
                    <path d="M257.82,343.731C258.939,341.787 259.854,340.092 260.213,339.289C259.696,340.004 258.683,341.64 257.556,343.576C256.435,345.521 255.532,347.223 255.161,348.016C255.674,347.303 256.699,345.661 257.82,343.731Z" style="fill:rgb(84,88,89);fill-rule:nonzero;"/>
                    <path d="M262.429,343.868C263.425,341.856 264.23,340.106 264.539,339.283C264.073,340.029 263.163,341.725 262.157,343.728C261.16,345.74 260.366,347.494 260.045,348.309C260.514,347.566 261.433,345.863 262.429,343.868Z" style="fill:rgb(84,88,89);fill-rule:nonzero;"/>
                    <path d="M267.038,343.715C267.906,341.645 268.602,339.848 268.856,339.007C268.437,339.778 267.638,341.529 266.759,343.594C265.89,345.663 265.208,347.463 264.939,348.298C265.358,347.524 266.171,345.768 267.038,343.715Z" style="fill:rgb(84,88,89);fill-rule:nonzero;"/>
                    <path d="M271.63,343.271C272.366,341.151 272.945,339.315 273.147,338.458C272.779,339.258 272.089,341.053 271.343,343.166C270.604,345.291 270.037,347.129 269.821,347.978C270.191,347.18 270.894,345.377 271.63,343.271Z" style="fill:rgb(84,88,89);fill-rule:nonzero;"/>
                    <path d="M276.185,342.541C276.784,340.379 277.249,338.51 277.399,337.643C277.079,338.463 276.503,340.299 275.892,342.455C275.288,344.619 274.838,346.491 274.677,347.352C274.994,346.532 275.582,344.688 276.185,342.541Z" style="fill:rgb(84,88,89);fill-rule:nonzero;"/>
                    <path d="M309.197,326.928C308.68,324.746 308.188,322.885 307.899,322.048C308.018,322.923 308.396,324.813 308.896,326.994C309.411,329.182 309.921,331.037 310.189,331.869C310.076,330.996 309.702,329.102 309.197,326.928Z" style="fill:rgb(84,88,89);fill-rule:nonzero;"/>
                    <path d="M312.651,323.869C311.997,321.725 311.391,319.9 311.05,319.083C311.222,319.949 311.719,321.809 312.358,323.955C313.006,326.105 313.631,327.927 313.954,328.742C313.785,327.877 313.29,326.006 312.651,323.869Z" style="fill:rgb(84,88,89);fill-rule:nonzero;"/>
                    <path d="M315.906,320.603C315.12,318.501 314.399,316.719 314.007,315.925C314.232,316.781 314.847,318.604 315.619,320.706C316.401,322.812 317.14,324.588 317.511,325.384C317.289,324.53 316.678,322.695 315.906,320.603Z" style="fill:rgb(84,88,89);fill-rule:nonzero;"/>
                    <path d="M318.95,317.138C318.034,315.09 317.202,313.356 316.761,312.588C317.039,313.427 317.767,315.207 318.669,317.258C319.582,319.311 320.432,321.036 320.852,321.806C320.576,320.97 319.852,319.177 318.95,317.138Z" style="fill:rgb(84,88,89);fill-rule:nonzero;"/>
                    <path d="M321.771,313.487C320.728,311.501 319.788,309.823 319.299,309.084C319.63,309.905 320.468,311.636 321.497,313.624C322.538,315.615 323.494,317.287 323.961,318.027C323.633,317.209 322.798,315.465 321.771,313.487Z" style="fill:rgb(84,88,89);fill-rule:nonzero;"/>
                    <path d="M324.355,309.667C323.19,307.75 322.146,306.135 321.613,305.427C321.993,306.227 322.938,307.9 324.091,309.822C325.255,311.743 326.316,313.354 326.826,314.062C326.448,313.266 325.505,311.576 324.355,309.667Z" style="fill:rgb(84,88,89);fill-rule:nonzero;"/>
                    <path d="M326.695,305.693C325.411,303.854 324.27,302.305 323.69,301.634C324.122,302.405 325.174,304.02 326.442,305.862C327.727,307.709 328.881,309.246 329.437,309.923C329.011,309.152 327.961,307.524 326.695,305.693Z" style="fill:rgb(84,88,89);fill-rule:nonzero;"/>
                    <path d="M328.78,301.579C327.385,299.823 326.147,298.352 325.53,297.718C326.007,298.461 327.156,300.003 328.538,301.766C329.936,303.526 331.187,304.987 331.784,305.629C331.309,304.885 330.16,303.327 328.78,301.579Z" style="fill:rgb(84,88,89);fill-rule:nonzero;"/>
                    <path d="M330.604,297.342C329.101,295.678 327.774,294.286 327.114,293.693C327.642,294.403 328.884,295.872 330.374,297.545C331.879,299.216 333.221,300.593 333.856,301.195C333.337,300.482 332.091,299 330.604,297.342Z" style="fill:rgb(84,88,89);fill-rule:nonzero;"/>
                    <path d="M332.158,292.998C330.554,291.433 329.143,290.127 328.446,289.575C329.016,290.253 330.35,291.642 331.94,293.216C333.55,294.787 334.973,296.079 335.646,296.641C335.082,295.963 333.746,294.561 332.158,292.998Z" style="fill:rgb(84,88,89);fill-rule:nonzero;"/>
                    <path d="M333.439,288.568C331.738,287.103 330.245,285.892 329.517,285.387C330.127,286.023 331.545,287.324 333.232,288.796C334.938,290.264 336.438,291.465 337.145,291.982C336.542,291.341 335.117,290.027 333.439,288.568Z" style="fill:rgb(84,88,89);fill-rule:nonzero;"/>
                    <path d="M334.436,284.063C332.646,282.709 331.081,281.592 330.321,281.133C330.973,281.733 332.469,282.941 334.244,284.304C336.038,285.664 337.611,286.768 338.35,287.242C337.707,286.638 336.202,285.416 334.436,284.063Z" style="fill:rgb(84,88,89);fill-rule:nonzero;"/>
                    <path d="M335.148,279.506C333.277,278.269 331.645,277.251 330.859,276.841C331.545,277.398 333.114,278.51 334.973,279.76C336.849,281.002 338.487,282.006 339.252,282.432C338.575,281.87 336.997,280.746 335.148,279.506Z" style="fill:rgb(84,88,89);fill-rule:nonzero;"/>
                    <path d="M335.573,274.913C333.628,273.795 331.936,272.884 331.125,272.523C331.846,273.035 333.479,274.047 335.413,275.178C337.363,276.3 339.063,277.199 339.854,277.574C339.142,277.058 337.495,276.036 335.573,274.913Z" style="fill:rgb(84,88,89);fill-rule:nonzero;"/>
                    <path d="M335.706,270.302C333.698,269.307 331.95,268.505 331.118,268.197C331.871,268.662 333.567,269.57 335.566,270.576C337.582,271.572 339.335,272.364 340.149,272.689C339.403,272.22 337.7,271.303 335.706,270.302Z" style="fill:rgb(84,88,89);fill-rule:nonzero;"/>
                    <path d="M335.554,265.691C333.486,264.826 331.691,264.134 330.842,263.879C331.62,264.297 333.37,265.097 335.429,265.976C337.507,266.845 339.303,267.521 340.137,267.797C339.365,267.373 337.605,266.564 335.554,265.691Z" style="fill:rgb(84,88,89);fill-rule:nonzero;"/>
                    <path d="M335.109,261.102C332.993,260.367 331.156,259.788 330.294,259.589C331.1,259.955 332.894,260.645 335.003,261.393C337.132,262.128 338.967,262.69 339.815,262.914C339.02,262.541 337.212,261.843 335.109,261.102Z" style="fill:rgb(84,88,89);fill-rule:nonzero;"/>
                    <path d="M334.382,256.547C332.222,255.949 330.352,255.486 329.477,255.341C330.304,255.655 332.14,256.229 334.292,256.844C336.461,257.447 338.328,257.891 339.19,258.063C338.371,257.738 336.523,257.156 334.382,256.547Z" style="fill:rgb(84,88,89);fill-rule:nonzero;"/>
                    <path d="M333.365,252.047C331.174,251.585 329.277,251.241 328.395,251.15C329.24,251.414 331.109,251.872 333.294,252.349C335.5,252.813 337.389,253.141 338.26,253.256C337.424,252.987 335.542,252.52 333.365,252.047Z" style="fill:rgb(84,88,89);fill-rule:nonzero;"/>
                    <path d="M332.069,247.619C329.854,247.299 327.939,247.073 327.052,247.037C327.914,247.249 329.806,247.586 332.021,247.927C334.248,248.253 336.154,248.459 337.031,248.521C336.177,248.303 334.274,247.956 332.069,247.619Z" style="fill:rgb(84,88,89);fill-rule:nonzero;"/>
                    <path d="M330.497,243.283C328.266,243.101 326.343,242.996 325.454,243.016C326.326,243.172 328.237,243.391 330.467,243.592C332.711,243.776 334.628,243.865 335.507,243.87C334.642,243.706 332.718,243.479 330.497,243.283Z" style="fill:rgb(84,88,89);fill-rule:nonzero;"/>
                    <path d="M328.658,239.055C326.42,239.013 324.491,239.028 323.609,239.104C324.488,239.205 326.409,239.303 328.645,239.363C330.897,239.406 332.816,239.375 333.694,239.326C332.818,239.217 330.886,239.111 328.658,239.055Z" style="fill:rgb(84,88,89);fill-rule:nonzero;"/>
                    <path d="M326.555,234.947C324.319,235.047 322.396,235.185 321.521,235.316C322.403,235.361 324.327,235.338 326.564,235.258C328.813,235.16 330.728,235.007 331.598,234.903C330.719,234.85 328.783,234.865 326.555,234.947Z" style="fill:rgb(84,88,89);fill-rule:nonzero;"/>
                    <path d="M324.199,230.982C321.974,231.222 320.064,231.479 319.197,231.665C320.081,231.657 322.002,231.513 324.227,231.294C326.465,231.053 328.367,230.78 329.229,230.621C328.351,230.621 326.417,230.76 324.199,230.982Z" style="fill:rgb(84,88,89);fill-rule:nonzero;"/>
                    <path d="M321.6,227.172C319.392,227.551 317.502,227.928 316.65,228.168C317.533,228.103 319.437,227.84 321.646,227.481C323.865,227.102 325.747,226.709 326.598,226.497C325.72,226.551 323.8,226.811 321.6,227.172Z" style="fill:rgb(84,88,89);fill-rule:nonzero;"/>
                    <path d="M318.766,223.533C316.588,224.05 314.724,224.545 313.889,224.838C314.765,224.717 316.648,224.335 318.833,223.838C321.021,223.318 322.874,222.81 323.712,222.546C322.838,222.655 320.938,223.035 318.766,223.533Z" style="fill:rgb(84,88,89);fill-rule:nonzero;"/>
                    <path d="M315.708,220.079C313.567,220.732 311.738,221.344 310.922,221.688C311.79,221.516 313.646,221.012 315.795,220.38C317.945,219.724 319.764,219.102 320.582,218.783C319.717,218.945 317.845,219.444 315.708,220.079Z" style="fill:rgb(84,88,89);fill-rule:nonzero;"/>
                    <path d="M312.438,216.824C310.345,217.609 308.558,218.336 307.766,218.73C308.621,218.503 310.442,217.883 312.544,217.121C314.65,216.331 316.429,215.593 317.224,215.226C316.369,215.44 314.532,216.057 312.438,216.824Z" style="fill:rgb(84,88,89);fill-rule:nonzero;"/>
                    <path d="M308.973,213.78C306.93,214.697 305.192,215.53 304.428,215.979C305.266,215.696 307.048,214.963 309.097,214.07C311.149,213.147 312.875,212.299 313.647,211.887C312.808,212.153 311.015,212.883 308.973,213.78Z" style="fill:rgb(84,88,89);fill-rule:nonzero;"/>
                    <path d="M305.323,210.961C303.342,212.004 301.659,212.946 300.924,213.438C301.743,213.105 303.474,212.263 305.464,211.24C307.455,210.191 309.125,209.238 309.871,208.777C309.047,209.094 307.304,209.938 305.323,210.961Z" style="fill:rgb(84,88,89);fill-rule:nonzero;"/>
                    <path d="M301.503,208.376C299.59,209.54 297.971,210.587 297.266,211.126C298.064,210.741 299.74,209.789 301.661,208.648C303.581,207.475 305.188,206.42 305.903,205.91C305.104,206.279 303.416,207.231 301.503,208.376Z" style="fill:rgb(84,88,89);fill-rule:nonzero;"/>
                    <path d="M297.526,206.036C295.694,207.317 294.143,208.464 293.474,209.047C294.244,208.61 295.855,207.559 297.703,206.297C299.547,205.005 301.083,203.852 301.765,203.299C300.988,203.719 299.365,204.771 297.526,206.036Z" style="fill:rgb(84,88,89);fill-rule:nonzero;"/>
                    <path d="M293.411,203.95C291.663,205.346 290.188,206.587 289.557,207.209C290.299,206.727 291.841,205.576 293.605,204.199C295.363,202.795 296.825,201.546 297.472,200.951C296.724,201.418 295.166,202.574 293.411,203.95Z" style="fill:rgb(84,88,89);fill-rule:nonzero;"/>
                    <path d="M289.175,202.129C287.518,203.631 286.124,204.962 285.533,205.622C286.242,205.092 287.709,203.848 289.383,202.364C291.052,200.851 292.431,199.514 293.036,198.881C292.321,199.393 290.841,200.643 289.175,202.129Z" style="fill:rgb(84,88,89);fill-rule:nonzero;"/>
                    <path d="M284.833,200.573C283.272,202.178 281.963,203.594 281.418,204.291C282.091,203.717 283.478,202.382 285.056,200.797C286.624,199.18 287.916,197.762 288.483,197.091C287.801,197.646 286.402,198.988 284.833,200.573Z" style="fill:rgb(84,88,89);fill-rule:nonzero;"/>
                    <path d="M280.401,199.297C278.942,200.996 277.728,202.49 277.225,203.221C277.863,202.604 279.161,201.184 280.637,199.506C282.102,197.794 283.303,196.296 283.825,195.592C283.178,196.188 281.865,197.615 280.401,199.297Z" style="fill:rgb(84,88,89);fill-rule:nonzero;"/>
                    <path d="M275.898,198.299C274.551,200.086 273.43,201.655 272.976,202.416C273.572,201.76 274.779,200.262 276.146,198.493C277.501,196.694 278.604,195.122 279.083,194.385C278.474,195.023 277.254,196.529 275.898,198.299Z" style="fill:rgb(84,88,89);fill-rule:nonzero;"/>
                    <path d="M271.34,197.587C270.106,199.455 269.089,201.09 268.682,201.877C269.238,201.186 270.347,199.615 271.601,197.764C272.839,195.882 273.844,194.247 274.273,193.48C273.705,194.154 272.583,195.735 271.34,197.587Z" style="fill:rgb(84,88,89);fill-rule:nonzero;"/>
                    <path d="M266.748,197.162C265.636,199.104 264.72,200.8 264.364,201.612C264.874,200.885 265.885,199.25 267.019,197.324C268.137,195.365 269.036,193.672 269.418,192.879C268.894,193.589 267.872,195.236 266.748,197.162Z" style="fill:rgb(84,88,89);fill-rule:nonzero;"/>
                    <path d="M209.83,261.878C214.45,263.612 222.539,266.643 227.801,268.617L236.86,272.014C242.121,273.988 243.894,279.438 240.796,284.127L235.463,292.201C232.366,296.892 227.605,304.098 224.886,308.215C222.166,312.334 217.206,312.485 213.864,308.555C213.864,308.555 206.944,299.674 203.641,289.507C200.337,279.337 200.713,268.079 200.713,268.079C201.109,262.938 205.211,260.145 209.83,261.878ZM211.079,236.183C211.079,236.183 217.387,226.855 226.038,220.57C234.689,214.284 245.51,211.165 245.51,211.165C250.523,209.953 254.446,212.99 254.226,217.92C254.006,222.852 253.622,231.481 253.371,237.094L252.938,246.762C252.688,252.372 248.05,255.742 242.635,254.247L233.31,251.671C227.891,250.174 219.565,247.872 214.811,246.558C210.053,245.246 208.374,240.574 211.079,236.183ZM268.647,295.111L274.677,302.676C278.182,307.068 283.562,313.823 286.64,317.686C289.715,321.543 288.327,326.309 283.558,328.272C283.558,328.272 272.969,332.109 262.277,332.109C251.585,332.109 240.999,328.272 240.999,328.272C236.229,326.309 234.842,321.543 237.917,317.686C240.994,313.823 246.376,307.068 249.879,302.676L255.908,295.111C259.411,290.719 265.146,290.719 268.647,295.111ZM279.05,211.169C279.05,211.169 289.869,214.285 298.521,220.57C307.171,226.855 313.483,236.183 313.483,236.183C316.185,240.577 314.507,245.247 309.751,246.56C304.993,247.874 296.668,250.176 291.25,251.671L281.925,254.248C276.51,255.745 271.871,252.375 271.622,246.762L271.189,237.094C270.94,231.481 270.554,222.853 270.336,217.922C270.112,212.99 274.035,209.952 279.05,211.169ZM323.844,268.082C323.844,268.082 324.222,279.338 320.918,289.507C317.614,299.674 310.694,308.559 310.694,308.559C307.352,312.487 302.39,312.336 299.673,308.217C296.951,304.098 292.188,296.892 289.095,292.203L283.762,284.128C280.665,279.442 282.438,273.99 287.698,272.018L296.756,268.618C302.019,266.646 310.105,263.614 314.728,261.882C319.348,260.146 323.451,262.938 323.844,268.082ZM262.277,335.445C298.175,335.445 327.271,306.347 327.271,270.451C327.271,234.559 298.175,205.459 262.277,205.459C226.385,205.459 197.284,234.559 197.284,270.451C197.284,306.347 226.385,335.445 262.277,335.445Z" style="fill:rgb(216,218,217);fill-rule:nonzero;"/>
                    <path d="M258.588,255.194C258.588,253.157 260.242,251.506 262.277,251.506C264.316,251.506 265.968,253.157 265.968,255.194C265.968,257.231 264.316,258.886 262.277,258.886C260.242,258.886 258.588,257.231 258.588,255.194Z" style="fill:rgb(65,68,70);fill-rule:nonzero;"/>
                    <path d="M260.191,255.194C260.191,254.043 261.127,253.109 262.277,253.109C263.43,253.109 264.364,254.043 264.364,255.194C264.364,256.347 263.43,257.281 262.277,257.281C261.127,257.281 260.191,256.347 260.191,255.194Z" style="fill:rgb(175,179,179);fill-rule:nonzero;"/>
                    <path d="M261.118,255.194C261.118,254.556 261.638,254.035 262.277,254.035C262.919,254.035 263.439,254.556 263.439,255.194C263.439,255.836 262.919,256.354 262.277,256.354C261.638,256.354 261.118,255.836 261.118,255.194Z" style="fill:rgb(216,218,217);fill-rule:nonzero;"/>
                    <path d="M246.627,269.246C244.69,268.616 243.629,266.533 244.258,264.598C244.89,262.658 246.97,261.599 248.907,262.229C250.844,262.857 251.906,264.939 251.276,266.879C250.646,268.813 248.565,269.875 246.627,269.246Z" style="fill:rgb(65,68,70);fill-rule:nonzero;"/>
                    <path d="M247.122,267.72C246.028,267.363 245.428,266.188 245.782,265.095C246.14,263.997 247.315,263.397 248.413,263.754C249.507,264.109 250.107,265.285 249.752,266.381C249.396,267.477 248.218,268.075 247.122,267.72Z" style="fill:rgb(175,179,179);fill-rule:nonzero;"/>
                    <path d="M247.409,266.838C246.801,266.641 246.466,265.987 246.663,265.379C246.861,264.77 247.516,264.437 248.125,264.636C248.734,264.832 249.067,265.486 248.871,266.097C248.672,266.703 248.019,267.037 247.409,266.838Z" style="fill:rgb(216,218,217);fill-rule:nonzero;"/>
                    <path d="M256.295,284.963C255.098,286.611 252.788,286.977 251.14,285.778C249.491,284.582 249.127,282.273 250.326,280.626C251.521,278.979 253.831,278.611 255.479,279.809C257.126,281.006 257.491,283.315 256.295,284.963Z" style="fill:rgb(65,68,70);fill-rule:nonzero;"/>
                    <path d="M254.996,284.021C254.319,284.953 253.017,285.16 252.084,284.482C251.15,283.807 250.943,282.502 251.622,281.568C252.298,280.639 253.604,280.431 254.538,281.106C255.467,281.785 255.674,283.091 254.996,284.021Z" style="fill:rgb(175,179,179);fill-rule:nonzero;"/>
                    <path d="M254.246,283.479C253.872,283.993 253.146,284.111 252.628,283.733C252.11,283.359 251.994,282.633 252.371,282.114C252.748,281.596 253.474,281.479 253.991,281.855C254.508,282.232 254.626,282.958 254.246,283.479Z" style="fill:rgb(216,218,217);fill-rule:nonzero;"/>
                    <path d="M274.23,280.628C275.428,282.275 275.061,284.584 273.413,285.78C271.763,286.979 269.457,286.613 268.259,284.963C267.062,283.317 267.427,281.006 269.075,279.809C270.724,278.615 273.032,278.979 274.23,280.628Z" style="fill:rgb(65,68,70);fill-rule:nonzero;"/>
                    <path d="M272.932,281.57C273.61,282.502 273.403,283.807 272.472,284.482C271.538,285.16 270.235,284.956 269.558,284.02C268.882,283.091 269.088,281.785 270.018,281.106C270.95,280.433 272.258,280.637 272.932,281.57Z" style="fill:rgb(175,179,179);fill-rule:nonzero;"/>
                    <path d="M272.182,282.115C272.559,282.633 272.445,283.359 271.926,283.733C271.409,284.111 270.684,283.994 270.309,283.477C269.93,282.958 270.045,282.234 270.565,281.855C271.081,281.479 271.806,281.596 272.182,282.115Z" style="fill:rgb(216,218,217);fill-rule:nonzero;"/>
                    <path d="M275.65,262.229C277.584,261.599 279.666,262.663 280.298,264.6C280.926,266.538 279.865,268.618 277.926,269.246C275.991,269.877 273.907,268.816 273.277,266.879C272.651,264.941 273.71,262.859 275.65,262.229Z" style="fill:rgb(65,68,70);fill-rule:nonzero;"/>
                    <path d="M276.145,263.754C277.241,263.397 278.414,263.996 278.772,265.095C279.129,266.19 278.531,267.366 277.431,267.721C276.338,268.075 275.159,267.478 274.802,266.381C274.449,265.289 275.047,264.109 276.145,263.754Z" style="fill:rgb(175,179,179);fill-rule:nonzero;"/>
                    <path d="M276.432,264.638C277.04,264.438 277.693,264.771 277.889,265.381C278.089,265.989 277.755,266.643 277.146,266.838C276.535,267.039 275.883,266.703 275.683,266.094C275.485,265.487 275.82,264.833 276.432,264.638Z" style="fill:rgb(216,218,217);fill-rule:nonzero;"/>
                    <path d="M271.245,270.441C271.245,275.395 267.23,279.408 262.277,279.408C257.325,279.408 253.312,275.395 253.312,270.441C253.312,265.49 257.325,261.477 262.277,261.477C267.23,261.477 271.245,265.49 271.245,270.441Z" style="fill:rgb(84,88,89);fill-rule:nonzero;"/>
                    <path d="M278.358,325.044C278.358,325.044 270.357,327.942 262.277,327.942C254.199,327.942 246.198,325.044 246.198,325.044C242.594,323.559 241.544,319.96 243.869,317.043C246.193,314.125 250.261,309.021 252.907,305.701L257.466,299.982C260.112,296.662 264.444,296.662 267.091,299.982L271.647,305.701C274.297,309.021 278.362,314.125 280.688,317.043C283.013,319.96 281.963,323.559 278.358,325.044ZM286.64,317.686C283.562,313.823 278.182,307.068 274.677,302.676L268.647,295.111C265.146,290.719 259.411,290.719 255.908,295.111L249.879,302.676C246.376,307.068 240.994,313.823 237.917,317.686C234.842,321.543 236.229,326.309 240.999,328.272C240.999,328.272 251.585,332.109 262.277,332.109C272.969,332.109 283.558,328.272 283.558,328.272C288.327,326.309 289.715,321.543 286.64,317.686Z" style="fill:rgb(184,187,188);fill-rule:nonzero;"/>
                    <path d="M319.166,272.029C319.166,272.029 319.452,280.532 316.955,288.217C314.459,295.902 309.229,302.613 309.229,302.613C306.702,305.584 302.956,305.469 300.9,302.358C298.843,299.244 295.246,293.799 292.905,290.256L288.876,284.152C286.537,280.611 287.875,276.49 291.85,275.001L298.695,272.432C302.672,270.94 308.781,268.652 312.277,267.34C315.771,266.031 318.868,268.139 319.166,272.029ZM314.727,261.88C310.103,263.614 302.018,266.643 296.756,268.617L287.698,272.014C282.436,273.988 280.664,279.44 283.762,284.127L289.094,292.201C292.188,296.892 296.951,304.096 299.671,308.215C302.39,312.334 307.351,312.485 310.692,308.555C310.692,308.555 317.612,299.674 320.917,289.507C324.22,279.337 323.843,268.082 323.843,268.082C323.449,262.938 319.348,260.145 314.727,261.88Z" style="fill:rgb(184,187,188);fill-rule:nonzero;"/>
                    <path d="M281.355,216.836C281.355,216.836 289.532,219.192 296.07,223.94C302.607,228.69 307.374,235.737 307.374,235.737C309.418,239.059 308.15,242.586 304.557,243.581C300.958,244.574 294.669,246.313 290.577,247.443L283.527,249.39C279.437,250.52 275.931,247.974 275.741,243.732L275.415,236.428C275.223,232.188 274.935,225.669 274.769,221.937C274.603,218.214 277.565,215.916 281.355,216.836ZM270.333,217.922C270.552,222.853 270.934,231.481 271.188,237.094L271.619,246.76C271.868,252.373 276.508,255.742 281.925,254.247L291.247,251.671C296.665,250.176 304.989,247.872 309.748,246.56C314.506,245.243 316.182,240.574 313.479,236.18C313.479,236.18 307.168,226.855 298.52,220.57C289.867,214.284 279.046,211.167 279.046,211.167C274.034,209.951 270.11,212.988 270.333,217.922Z" style="fill:rgb(184,187,188);fill-rule:nonzero;"/>
                    <path d="M217.18,235.74C217.18,235.74 221.947,228.69 228.484,223.94C235.021,219.192 243.198,216.836 243.198,216.836C246.988,215.916 249.952,218.215 249.787,221.938C249.62,225.666 249.33,232.188 249.141,236.429L248.813,243.734C248.624,247.974 245.118,250.52 241.025,249.391L233.978,247.443C229.886,246.314 223.599,244.574 219.998,243.581C216.405,242.586 215.135,239.061 217.18,235.74ZM214.808,246.558C219.564,247.872 227.889,250.178 233.306,251.671L242.63,254.247C248.048,255.745 252.686,252.372 252.935,246.762L253.367,237.094C253.618,231.483 254.003,222.853 254.223,217.922C254.443,212.99 250.521,209.953 245.505,211.169C245.505,211.169 234.687,214.287 226.037,220.57C217.387,226.855 211.076,236.183 211.076,236.183C208.372,240.574 210.048,245.246 214.808,246.558Z" style="fill:rgb(184,187,188);fill-rule:nonzero;"/>
                    <path d="M215.327,302.616C215.327,302.616 210.098,295.904 207.601,288.219C205.102,280.534 205.389,272.031 205.389,272.031C205.687,268.139 208.788,266.034 212.279,267.34C215.773,268.652 221.884,270.94 225.861,272.432L232.706,275.003C236.682,276.49 238.02,280.613 235.679,284.154L231.651,290.258C229.313,293.799 225.714,299.244 223.657,302.359C221.599,305.469 217.854,305.588 215.327,302.616ZM224.882,308.217C227.605,304.098 232.369,296.894 235.461,292.201L240.793,284.131C243.894,279.44 242.118,273.99 236.858,272.018L227.8,268.617C222.538,266.643 214.45,263.614 209.828,261.88C205.207,260.146 201.105,262.938 200.713,268.082C200.713,268.082 200.337,279.338 203.64,289.507C206.942,299.674 213.864,308.559 213.864,308.559C217.203,312.488 222.164,312.337 224.882,308.217Z" style="fill:rgb(184,187,188);fill-rule:nonzero;"/>
                    <path d="M268.832,270.441C268.832,274.061 265.897,276.995 262.277,276.995C258.659,276.995 255.726,274.061 255.726,270.441C255.726,266.822 258.659,263.889 262.277,263.889C265.897,263.889 268.832,266.822 268.832,270.441Z" style="fill:rgb(27,31,34);fill-rule:nonzero;"/>
                    <path d="M262.096,341.93L180.082,341.732C180.279,339.174 181.497,338.107 182.979,336.813C184.554,335.434 187.849,333.702 187.849,329.793C187.849,329.793 239.484,338.265 262.092,338.473" style="fill:rgb(84,88,89);fill-rule:nonzero;"/>
                    <path d="M262.095,338.47C250.304,337.999 231.178,335.445 214.959,333.845C214.959,333.845 218.972,336.758 225.175,338.458C230.518,339.925 251.991,340.174 262.095,340.289" style="fill:rgb(65,68,70);fill-rule:nonzero;"/>
                    <path d="M210.023,337.121C210.048,337.129 210.08,337.136 210.106,337.143C209.559,336.869 209.121,336.581 208.74,336.289C208.991,336.633 209.339,336.894 210.023,337.121Z" style="fill:rgb(84,88,89);fill-rule:nonzero;"/>
                    <path d="M234.346,341.813C233.776,341.83 233.224,341.84 232.7,341.84C226.866,341.84 223.704,340.788 221.089,339.92C219.488,339.385 218.104,338.925 216.382,338.752C213.62,338.477 211.561,337.866 210.106,337.143C210.08,337.136 210.048,337.129 210.023,337.121C209.339,336.894 208.991,336.633 208.74,336.289C208.106,335.802 207.67,335.305 207.466,334.849C206.963,333.735 205.778,332.794 205.354,332.48C204.808,332.401 204.271,332.322 203.745,332.242C204.043,332.541 204.749,333.217 205.995,334.291C206.715,334.912 206.992,335.491 207.261,336.049C207.656,336.869 208.064,337.718 209.654,338.242C210.743,338.602 212.364,338.852 214.078,339.119C216.15,339.444 218.291,339.776 219.412,340.295C220.103,340.613 221.76,341.291 224.321,341.838L234.347,341.863L234.346,341.813Z" style="fill:rgb(109,113,114);fill-rule:nonzero;"/>
                    <path d="M206.767,333.396C207.67,334.179 208.034,334.932 208.323,335.537C208.465,335.826 208.584,336.073 208.74,336.289C209.121,336.581 209.559,336.869 210.106,337.143C211.106,337.458 212.636,337.7 214.261,337.954C216.413,338.29 218.637,338.635 219.909,339.223C222.597,340.467 227.788,341.711 234.328,341.428L234.346,341.813C234.784,341.799 235.231,341.782 235.7,341.756L235.667,341.166C227.966,341.589 224.414,340.402 221.276,339.357C219.709,338.837 218.228,338.344 216.44,338.165C211.498,337.67 208.642,336.021 208.003,334.608C207.649,333.825 206.893,333.119 206.352,332.627C206.124,332.592 206.025,332.578 205.8,332.545C206.076,332.794 206.395,333.074 206.767,333.396Z" style="fill:rgb(52,56,58);fill-rule:nonzero;"/>
                    <path d="M219.909,339.223C218.637,338.635 216.413,338.29 214.261,337.954C212.636,337.7 211.106,337.458 210.106,337.143C211.561,337.866 213.62,338.477 216.382,338.752C218.104,338.925 219.488,339.385 221.089,339.92C223.704,340.788 226.866,341.84 232.7,341.84C233.224,341.84 233.776,341.83 234.346,341.813L234.328,341.428C227.788,341.711 222.597,340.467 219.909,339.223Z" style="fill:rgb(52,56,58);fill-rule:nonzero;"/>
                    <path d="M206.767,333.396C206.395,333.074 206.076,332.794 205.8,332.545C205.65,332.521 205.499,332.502 205.354,332.48C205.778,332.794 206.963,333.735 207.466,334.849C207.67,335.305 208.106,335.802 208.74,336.289C208.584,336.073 208.465,335.826 208.323,335.537C208.034,334.932 207.67,334.179 206.767,333.396Z" style="fill:rgb(52,56,58);fill-rule:nonzero;"/>
                    <path d="M198.289,331.428C198.289,331.428 194.067,331.636 193.729,332.545C193.569,332.971 191.243,335.961 191.243,335.961L195.092,336.289L197.284,333.859L200.863,333.619L202.145,331.869L198.289,331.428Z" style="fill:rgb(65,68,70);fill-rule:nonzero;"/>
                    <path d="M201.31,334.385C201.31,334.385 198.027,334.844 198.013,334.989C197.999,335.137 196.175,337.143 196.175,337.143L192.974,337.68L194.09,339.007L196.175,337.68L198.013,336.289L199.871,335.278L202.145,335.215L201.31,334.385Z" style="fill:rgb(65,68,70);fill-rule:nonzero;"/>
                    <path d="M262.095,341.935L344.411,341.77C344.214,339.211 342.998,338.145 341.516,336.848C339.939,335.47 336.646,333.739 336.646,329.829C336.646,329.829 284.704,338.269 262.096,338.477" style="fill:rgb(84,88,89);fill-rule:nonzero;"/>
                    <path d="M262.096,338.475C273.925,338.072 293.205,335.68 309.537,333.881C309.537,333.881 305.523,336.795 299.32,338.494C293.977,339.961 272.197,340.18 262.096,340.294" style="fill:rgb(65,68,70);fill-rule:nonzero;"/>
                    <path d="M314.472,337.157C314.447,337.164 314.413,337.172 314.388,337.181C314.937,336.907 315.374,336.619 315.754,336.325C315.505,336.669 315.158,336.931 314.472,337.157Z" style="fill:rgb(84,88,89);fill-rule:nonzero;"/>
                    <path d="M290.147,341.85C290.717,341.868 291.271,341.878 291.794,341.878C297.628,341.878 300.791,340.826 303.404,339.955C305.006,339.422 306.392,338.961 308.114,338.791C310.873,338.512 312.933,337.901 314.388,337.181C314.413,337.172 314.447,337.164 314.472,337.157C315.158,336.931 315.505,336.669 315.754,336.325C316.388,335.839 316.824,335.341 317.029,334.885C317.533,333.773 318.716,332.832 319.142,332.518C319.688,332.438 320.225,332.358 320.751,332.279C320.452,332.578 319.744,333.254 318.501,334.328C317.782,334.947 317.502,335.528 317.234,336.087C316.839,336.907 316.432,337.756 314.839,338.277C313.75,338.639 312.131,338.891 310.415,339.158C308.344,339.48 306.204,339.813 305.081,340.334C304.391,340.65 302.735,341.329 300.172,341.876L290.147,341.901L290.147,341.85Z" style="fill:rgb(109,113,114);fill-rule:nonzero;"/>
                    <path d="M317.729,333.434C316.824,334.215 316.461,334.969 316.17,335.573C316.028,335.864 315.909,336.111 315.754,336.325C315.374,336.619 314.937,336.907 314.388,337.181C313.388,337.496 311.859,337.737 310.232,337.988C308.083,338.326 305.857,338.674 304.586,339.258C301.897,340.503 296.706,341.748 290.166,341.464L290.147,341.85C289.71,341.836 289.263,341.818 288.796,341.793L288.827,341.203C296.527,341.625 300.082,340.439 303.219,339.395C304.785,338.873 306.267,338.381 308.054,338.201C312.997,337.707 315.852,336.057 316.491,334.644C316.844,333.861 317.672,333.146 318.212,332.652C318.442,332.62 318.47,332.613 318.695,332.583C318.418,332.832 318.099,333.112 317.729,333.434Z" style="fill:rgb(52,56,58);fill-rule:nonzero;"/>
                    <path d="M304.586,339.258C305.857,338.674 308.083,338.326 310.232,337.988C311.859,337.737 313.388,337.496 314.388,337.181C312.933,337.901 310.873,338.512 308.114,338.791C306.392,338.961 305.006,339.422 303.404,339.955C300.791,340.826 297.628,341.878 291.794,341.878C291.271,341.878 290.717,341.868 290.147,341.85L290.166,341.464C296.706,341.748 301.897,340.503 304.586,339.258Z" style="fill:rgb(52,56,58);fill-rule:nonzero;"/>
                    <path d="M317.729,333.434C318.099,333.112 318.418,332.832 318.695,332.583C318.845,332.561 318.995,332.539 319.142,332.518C318.716,332.832 317.533,333.773 317.029,334.885C316.824,335.341 316.388,335.839 315.754,336.325C315.909,336.111 316.028,335.864 316.17,335.573C316.461,334.969 316.824,334.215 317.729,333.434Z" style="fill:rgb(52,56,58);fill-rule:nonzero;"/>
                    <path d="M326.204,331.465C326.204,331.465 330.427,331.67 330.769,332.583C330.927,333.008 333.251,335.997 333.251,335.997L329.402,336.325L327.21,333.895L323.631,333.654L322.351,331.906L326.204,331.465Z" style="fill:rgb(65,68,70);fill-rule:nonzero;"/>
                    <path d="M323.184,334.421C323.184,334.421 326.467,334.88 326.481,335.027C326.496,335.174 328.321,337.181 328.321,337.181L331.521,337.718L330.403,339.043L328.321,337.718L326.481,336.325L324.625,335.314L322.351,335.253L323.184,334.421Z" style="fill:rgb(65,68,70);fill-rule:nonzero;"/>
                    <path d="M247.746,338.358C247.622,338.52 247.325,338.736 247.188,338.932C247.032,339.131 246.951,339.322 246.905,339.438C247.024,339.369 247.158,339.233 247.34,339.082C247.435,339.007 247.535,338.926 247.641,338.841C247.749,338.764 247.894,338.682 248.008,338.496C248.113,338.306 248.04,338.049 247.98,337.947C247.911,337.83 247.94,337.784 247.976,337.678C248.075,337.487 248.229,337.361 248.311,337.261C248.188,337.286 247.98,337.348 247.798,337.563C247.758,337.617 247.722,337.7 247.689,337.777C247.685,337.871 247.695,337.976 247.725,338.042C247.779,338.199 247.786,338.256 247.746,338.358Z" style="fill:rgb(84,88,89);fill-rule:nonzero;"/>
                    <path d="M250.525,338.631C250.434,338.779 250.235,338.895 250.096,339.037C249.941,339.17 249.898,339.364 249.916,339.457C249.993,339.377 250.067,339.28 250.227,339.207C250.371,339.115 250.6,339.043 250.772,338.791C250.937,338.51 250.861,338.25 250.839,338.08C250.796,337.904 250.807,337.775 250.784,337.666C250.727,337.737 250.634,337.892 250.626,338.089C250.604,338.277 250.614,338.491 250.525,338.631Z" style="fill:rgb(84,88,89);fill-rule:nonzero;"/>
                    <path d="M254.065,338.861C253.849,339.14 253.551,339.495 253.608,339.697C253.734,339.539 254.01,339.416 254.316,339.017C254.55,338.528 254.369,338.159 254.309,337.999C254.21,338.154 254.22,338.573 254.065,338.861Z" style="fill:rgb(84,88,89);fill-rule:nonzero;"/>
                    <path d="M257.396,338.893C257.355,339.096 257.334,339.264 257.289,339.4C257.239,339.539 257.22,339.723 257.281,339.789C257.312,339.691 257.38,339.635 257.482,339.493C257.584,339.352 257.647,339.146 257.686,338.951C257.777,338.554 257.726,338.151 257.614,338.016C257.551,338.195 257.482,338.492 257.396,338.893Z" style="fill:rgb(84,88,89);fill-rule:nonzero;"/>
                    <path d="M260.03,338.982C259.974,339.15 259.872,339.348 259.816,339.506C259.773,339.684 259.773,339.836 259.793,339.918C259.863,339.84 259.931,339.729 260.008,339.598C260.109,339.463 260.224,339.319 260.308,339.08C260.458,338.591 260.282,338.236 260.217,338.072C260.117,338.236 260.148,338.643 260.03,338.982Z" style="fill:rgb(84,88,89);fill-rule:nonzero;"/>
                    <path d="M263.012,339.14C262.941,339.235 262.804,339.366 262.742,339.506C262.652,339.646 262.715,339.835 262.801,339.844C262.77,339.661 262.986,339.628 263.259,339.301C263.443,338.865 263.274,338.643 263.372,338.514C263.143,338.492 263.097,338.969 263.012,339.14Z" style="fill:rgb(84,88,89);fill-rule:nonzero;"/>
                    <path d="M265.661,339.037C265.257,339.371 264.991,339.723 264.776,339.678C264.839,339.798 265.077,339.774 265.262,339.678C265.458,339.585 265.654,339.426 265.85,339.264C265.89,339.233 265.926,339.201 265.963,339.172L265.948,339.181C266.05,339.115 266.146,339.054 266.241,338.993C266.316,338.905 266.38,338.815 266.431,338.732C266.517,338.549 266.521,338.43 266.549,338.33C266.35,338.456 266.252,338.783 265.818,338.919L265.813,338.921L265.806,338.928C265.763,338.96 265.702,338.998 265.661,339.037Z" style="fill:rgb(84,88,89);fill-rule:nonzero;"/>
                    <path d="M269.288,338.774C268.929,339.193 268.906,339.545 268.745,339.678C268.988,339.715 269.25,339.264 269.49,338.99C269.622,338.869 269.872,338.72 269.926,338.5C269.993,338.29 269.925,338.148 269.907,338.053C269.844,338.128 269.822,338.295 269.73,338.41C269.66,338.539 269.495,338.595 269.288,338.774Z" style="fill:rgb(84,88,89);fill-rule:nonzero;"/>
                    <path d="M273.514,338.428C273.434,338.688 273.333,338.949 273.339,339.158C273.351,339.371 273.379,339.539 273.416,339.641C273.466,339.539 273.514,339.38 273.55,339.187C273.597,338.992 273.708,338.801 273.776,338.561C274.002,337.997 273.901,337.573 273.915,337.353C273.744,337.506 273.683,338.019 273.514,338.428Z" style="fill:rgb(84,88,89);fill-rule:nonzero;"/>
                    <path d="M277.378,338.189C277.253,338.639 277.106,339.041 277.108,339.252C277.262,339.115 277.523,338.77 277.663,338.265C277.815,337.746 277.608,337.263 277.439,337.149C277.452,337.367 277.504,337.739 277.378,338.189Z" style="fill:rgb(84,88,89);fill-rule:nonzero;"/>
                    <path d="M221.747,332.117C223.378,330.689 224.999,329.786 225.715,329.328C224.928,329.624 223.207,330.445 221.553,331.893C220.779,332.629 219.901,333.287 219.656,334.168C219.516,334.576 219.455,334.953 219.34,335.251C219.236,335.56 219.069,335.769 218.924,335.926C219.096,335.807 219.308,335.605 219.451,335.298C219.604,334.996 219.696,334.621 219.857,334.242C220.117,333.455 220.962,332.861 221.747,332.117Z" style="fill:rgb(84,88,89);fill-rule:nonzero;"/>
                    <path d="M225.493,333.752C226.001,332.947 226.681,332.342 227.245,331.848C227.819,331.358 228.295,330.975 228.57,330.706C228.242,330.904 227.726,331.228 227.113,331.683C226.508,332.144 225.785,332.74 225.243,333.596C224.692,334.468 224.631,335.426 224.27,336.055C223.92,336.703 223.327,336.961 223.008,337.155C223.353,337.04 224.011,336.852 224.452,336.163C224.891,335.491 224.984,334.539 225.493,333.752Z" style="fill:rgb(84,88,89);fill-rule:nonzero;"/>
                    <path d="M229.915,334.979C230.736,333.802 231.77,332.997 232.115,332.529C231.653,332.871 230.551,333.561 229.667,334.817C229.446,335.137 229.273,335.451 229.131,335.75C228.981,336.047 228.813,336.305 228.659,336.539C228.329,336.998 227.956,337.254 227.734,337.452C227.992,337.33 228.434,337.125 228.827,336.671C229.01,336.445 229.205,336.178 229.371,335.884C229.529,335.578 229.71,335.271 229.915,334.979Z" style="fill:rgb(84,88,89);fill-rule:nonzero;"/>
                    <path d="M233.315,336.484C233.581,335.868 233.856,335.32 234.128,334.881C234.396,334.444 234.688,334.142 234.823,333.906C234.63,334.078 234.276,334.337 233.952,334.762C233.626,335.185 233.314,335.742 233.045,336.367C232.766,336.991 232.603,337.586 232.23,337.934C231.878,338.299 231.574,338.614 231.425,338.831C231.642,338.672 231.973,338.43 232.382,338.084C232.828,337.737 233.052,337.078 233.315,336.484Z" style="fill:rgb(84,88,89);fill-rule:nonzero;"/>
                    <path d="M237.609,336.834C237.929,336.08 238.41,335.472 238.514,335.139C238.269,335.378 237.698,335.881 237.335,336.727C237.27,336.95 237.177,337.151 237.178,337.371C237.18,337.564 237.182,337.746 237.183,337.917C237.166,338.217 236.951,338.402 236.839,338.534C236.987,338.479 237.301,338.344 237.392,337.947C237.442,337.569 237.434,337.218 237.609,336.834Z" style="fill:rgb(84,88,89);fill-rule:nonzero;"/>
                    <path d="M241.362,337.215C241.71,336.698 241.982,336.225 242.059,335.975C241.841,336.121 241.473,336.521 241.112,337.057C240.967,337.348 240.802,337.604 240.75,337.857C240.697,338.11 240.675,338.312 240.68,338.437C240.836,338.208 241.03,337.74 241.362,337.215Z" style="fill:rgb(84,88,89);fill-rule:nonzero;"/>
                    <path d="M305.792,330.447C305.401,328.111 304.753,326.164 304.479,325.292C304.588,326.221 305.112,328.167 305.502,330.503C306.001,332.8 306.314,334.855 305.759,335.68C306.09,335.334 306.271,334.552 306.242,333.63C306.237,332.694 306.009,331.605 305.792,330.447Z" style="fill:rgb(84,88,89);fill-rule:nonzero;"/>
                    <path d="M302.688,332.385C302.546,331.31 302.349,330.328 302.143,329.525C301.954,328.716 301.84,328.063 301.722,327.656C301.752,328.069 301.796,328.744 301.935,329.566C302.089,330.385 302.255,331.362 302.393,332.411C302.4,332.939 302.41,333.447 302.417,333.928C302.388,334.411 302.359,334.865 302.335,335.279C302.257,336.096 302.182,336.773 301.919,337.107C302.256,336.823 302.419,336.12 302.546,335.303C302.608,334.891 302.651,334.43 302.69,333.949C302.703,333.459 302.69,332.931 302.688,332.385Z" style="fill:rgb(84,88,89);fill-rule:nonzero;"/>
                    <path d="M299.446,333.686C299.336,331.599 299.235,329.848 299.113,329.034C299.062,329.831 299.042,331.637 299.15,333.693C299.163,334.204 299.232,334.718 299.204,335.165C299.171,335.614 299.055,336.042 298.972,336.439C298.778,337.22 298.776,337.919 298.966,338.29C298.862,337.889 298.939,337.256 299.18,336.488C299.286,336.104 299.424,335.678 299.478,335.188C299.522,334.696 299.459,334.209 299.446,333.686Z" style="fill:rgb(84,88,89);fill-rule:nonzero;"/>
                    <path d="M295.303,334.965C295.226,333.278 295.305,331.867 295.226,331.2C295.132,331.835 294.929,333.296 295.007,334.965C295.17,336.635 294.569,337.992 294.683,338.682C294.763,338.358 294.871,337.859 295.07,337.238C295.286,336.619 295.343,335.789 295.303,334.965Z" style="fill:rgb(84,88,89);fill-rule:nonzero;"/>
                    <path d="M291.606,336.491C291.75,335.141 291.554,334.026 291.483,333.514C291.382,334.021 291.452,335.176 291.314,336.448C291.215,336.748 291.22,337.13 291.06,337.327C290.981,337.44 290.867,337.541 290.771,337.678C290.67,337.827 290.657,338.019 290.695,338.163L290.693,338.154C290.812,338.508 291.124,338.479 291.237,338.573C291.379,338.65 291.229,338.831 291.187,338.928C291.233,338.881 291.282,338.831 291.335,338.774C291.379,338.704 291.409,338.577 291.311,338.489C291.153,338.354 290.908,338.282 290.895,338.128L290.895,338.125L290.894,338.119C290.844,337.891 291.031,337.762 291.273,337.492C291.4,337.353 291.447,337.17 291.48,337.01C291.523,336.841 291.564,336.666 291.606,336.491Z" style="fill:rgb(84,88,89);fill-rule:nonzero;"/>
                    <path d="M288.327,337.085C288.481,336.513 288.429,335.993 288.425,335.573C288.4,335.147 288.425,334.817 288.429,334.597C288.34,334.792 288.239,335.137 288.212,335.566C288.168,335.991 288.18,336.508 288.045,337.001C287.937,337.516 287.485,337.729 287.149,338.035C286.775,338.348 286.8,338.789 286.856,338.979C286.89,338.762 286.939,338.42 287.287,338.199C287.585,337.986 288.19,337.709 288.327,337.085Z" style="fill:rgb(84,88,89);fill-rule:nonzero;"/>
                    <path d="M284.248,337.418C284.44,337.015 284.662,336.66 284.73,336.316C284.799,335.973 284.836,335.699 284.837,335.531C284.749,335.688 284.642,335.938 284.529,336.246C284.422,336.554 284.177,336.881 283.997,337.261C283.746,337.606 283.542,337.947 283.339,338.208C283.124,338.46 282.96,338.678 282.868,338.831C283.015,338.743 283.234,338.577 283.497,338.353C283.749,338.115 283.988,337.777 284.248,337.418Z" style="fill:rgb(84,88,89);fill-rule:nonzero;"/>
                    <path d="M281.405,337.664C281.272,337.121 281.211,336.756 281.196,336.516C281.151,336.603 281.033,336.768 281.039,336.986C281.013,337.211 281.076,337.463 281.115,337.707C281.248,338.195 280.769,338.326 280.605,338.485C280.707,338.481 280.89,338.498 281.097,338.396C281.341,338.312 281.469,337.941 281.405,337.664Z" style="fill:rgb(84,88,89);fill-rule:nonzero;"/>
                </g>
            </g>
            <g transform="matrix(0.915733,0,0,0.915733,18.7295,19.2815)">
                <path d="M181.311,278.919L164.458,278.919L164.458,242.804L125.454,242.804L125.454,278.919L90.302,278.919L143.993,172.982L102.581,172.982L48.89,278.919L48.89,314.553L125.454,314.553L125.454,341.518L164.458,341.518L164.458,314.553L181.311,314.553L181.311,278.919Z" style="fill:rgb(27,31,34);fill-rule:nonzero;"/>
            </g>
            <g transform="matrix(0.915733,0,0,0.915733,18.7295,19.2815)">
                <path d="M206.664,136.386C217.667,136.386 226.59,127.737 226.59,116.46C226.59,105.184 217.667,96.535 206.664,96.535C195.661,96.535 186.739,105.184 186.739,116.46C186.739,127.737 195.661,136.386 206.664,136.386ZM206.664,127.846C200.424,127.846 195.497,123.303 195.497,116.46C195.497,109.618 200.424,105.074 206.664,105.074C212.905,105.074 217.831,109.618 217.831,116.46C217.831,123.303 212.905,127.846 206.664,127.846Z" style="fill:white;fill-rule:nonzero;"/>
            </g>
            <g transform="matrix(0.915733,0,0,0.915733,18.7295,19.2815)">
                <path d="M244.381,136.386C252.428,136.386 258.887,130.091 258.887,121.934C258.887,113.778 252.428,107.483 244.381,107.483C236.334,107.483 229.874,113.778 229.874,121.934C229.874,130.091 236.334,136.386 244.381,136.386ZM244.381,128.394C240.823,128.394 238.086,125.821 238.086,121.934C238.086,118.048 240.823,115.475 244.381,115.475C247.939,115.475 250.676,118.048 250.676,121.934C250.676,125.821 247.939,128.394 244.381,128.394Z" style="fill:white;fill-rule:nonzero;"/>
            </g>
            <g transform="matrix(0.915733,0,0,0.915733,18.7295,19.2815)">
                <path d="M279.907,107.483C276.24,107.483 273.557,108.742 271.751,110.822L271.751,108.249L263.54,108.249L263.54,146.568L271.751,146.568L271.751,133.047C273.557,135.127 276.24,136.386 279.907,136.386C287.078,136.386 292.99,130.091 292.99,121.934C292.99,113.778 287.078,107.483 279.907,107.483ZM278.265,128.613C274.488,128.613 271.751,126.04 271.751,121.934C271.751,117.829 274.488,115.256 278.265,115.256C282.042,115.256 284.779,117.829 284.779,121.934C284.779,126.04 282.042,128.613 278.265,128.613Z" style="fill:white;fill-rule:nonzero;"/>
            </g>
            <g transform="matrix(0.915733,0,0,0.915733,18.7295,19.2815)">
                <path d="M304.869,116.241C304.869,115.256 305.745,114.709 307.168,114.709C308.974,114.709 310.069,115.694 310.835,117.117L317.842,113.34C315.543,109.453 311.602,107.483 307.168,107.483C301.475,107.483 296.439,110.494 296.439,116.46C296.439,125.93 309.905,124.343 309.905,127.354C309.905,128.448 308.92,129.051 306.949,129.051C304.54,129.051 303.008,127.901 302.296,125.821L295.18,129.872C297.315,134.306 301.475,136.386 306.949,136.386C312.861,136.386 318.335,133.704 318.335,127.408C318.335,117.281 304.869,119.361 304.869,116.241Z" style="fill:white;fill-rule:nonzero;"/>
            </g>
            <g transform="matrix(0.915733,0,0,0.915733,18.7295,19.2815)">
                <path d="M324.082,121.934L330.651,121.934L332.293,108.249L332.293,97.301L322.44,97.301L322.44,108.249L324.082,121.934ZM327.367,136.386C330.213,136.386 332.567,134.032 332.567,131.185C332.567,128.339 330.213,125.985 327.367,125.985C324.52,125.985 322.166,128.339 322.166,131.185C322.166,134.032 324.52,136.386 327.367,136.386Z" style="fill:white;fill-rule:nonzero;"/>
            </g>
        </g>
    </g>
</svg>
